<?xml version="1.0" standalone="no"?>
<!DOCTYPE svg PUBLIC "-//W3C//DTD SVG 20010904//EN"
 "http://www.w3.org/TR/2001/REC-SVG-20010904/DTD/svg10.dtd">
<svg version="1.0" xmlns="http://www.w3.org/2000/svg"
 width="500.000000pt" height="1182.000000pt" viewBox="0 0 500.000000 1182.000000"
 preserveAspectRatio="xMidYMid meet">

<g transform="translate(0.000000,1182.000000) scale(0.100000,-0.100000)"
fill="#000000" stroke="none">
<path d="M1709 11770 c-238 -37 -485 -281 -497 -490 -5 -79 15 -133 56 -154
23 -12 26 -20 27 -72 2 -94 7 -101 108 -150 97 -47 130 -53 165 -29 20 15 25
14 74 -23 73 -54 154 -97 211 -112 38 -10 48 -18 53 -39 10 -48 22 -68 54 -92
55 -41 93 -85 140 -159 25 -39 59 -88 77 -108 31 -36 33 -37 98 -35 61 2 69 0
91 -25 47 -54 92 -165 123 -303 49 -221 96 -321 239 -510 l42 -56 -20 -57
c-10 -31 -23 -62 -27 -69 -4 -6 -8 -25 -9 -40 -3 -47 -22 -56 -49 -25 l-23 27
-18 -21 c-15 -15 -19 -36 -19 -87 0 -61 -2 -66 -22 -69 -17 -3 -24 3 -29 22
-8 32 -24 34 -24 4 0 -49 -17 -50 -25 -2 -8 58 -21 84 -39 84 -8 0 -17 7 -20
16 -9 22 -8 24 9 18 19 -8 19 7 0 32 -21 28 -18 36 7 23 22 -12 22 -12 4 15
-17 27 -17 28 3 21 27 -8 28 11 1 27 -26 17 -25 26 3 30 20 3 19 5 -13 22 -31
17 -33 20 -15 26 19 7 19 7 0 17 -11 6 -35 8 -52 6 -22 -4 -33 -1 -33 7 0 8 9
10 26 6 17 -5 23 -3 19 4 -3 6 3 10 14 10 34 0 24 16 -19 30 -46 15 -50 25
-15 34 23 6 24 8 11 21 -8 8 -30 15 -48 16 l-33 1 30 13 30 14 -37 1 c-37 0
-51 14 -25 23 6 2 -3 7 -20 11 -37 8 -37 9 -23 37 12 21 1 25 -19 7 -11 -11
-12 -8 -7 17 7 28 7 29 -11 14 -10 -9 -29 -22 -42 -29 -21 -11 -23 -10 -18 4
8 19 -4 21 -22 4 -11 -11 -13 -6 -8 25 7 45 -1 47 -28 7 -18 -27 -45 -45 -30
-20 9 14 -8 12 -30 -4 -16 -11 -21 -11 -33 0 -8 8 -11 22 -7 34 9 29 -2 25
-36 -15 -33 -38 -49 -44 -49 -20 0 22 -17 18 -35 -7 l-15 -23 -7 23 c-5 22 -6
22 -31 -12 -14 -20 -29 -36 -33 -36 -4 0 -16 11 -27 25 -26 33 -32 32 -32 -6
0 -29 -2 -30 -30 -24 -26 6 -30 4 -30 -14 0 -25 -18 -27 -46 -6 -26 20 -33 19
-27 -5 4 -16 0 -20 -21 -20 -32 0 -34 -15 -3 -25 25 -7 19 -11 -36 -20 -32 -5
-36 -9 -27 -20 10 -12 8 -17 -11 -24 l-24 -9 28 -7 c35 -9 34 -15 -9 -45 -20
-13 -31 -26 -25 -28 18 -6 13 -18 -14 -30 -14 -6 -25 -16 -25 -22 0 -5 11 -10
25 -10 14 0 25 -5 25 -10 0 -7 7 -7 21 0 11 7 23 9 26 6 8 -7 -39 -25 -53 -19
-5 2 -19 -5 -29 -17 -10 -11 -14 -20 -9 -20 18 0 4 -70 -23 -113 -4 -6 0 -8
10 -4 11 4 17 1 17 -8 0 -12 -23 -15 -132 -15 -235 0 -409 -40 -606 -138 -97
-47 -157 -98 -222 -185 -46 -62 -53 -82 -47 -150 8 -95 79 -192 136 -185 48 6
104 126 82 175 -15 32 -41 30 -41 -3 0 -59 -60 11 -67 78 -7 59 6 80 75 125
177 113 429 195 659 214 133 10 173 7 173 -13 0 -6 6 -6 15 2 13 11 15 8 15
-17 0 -26 -8 -35 -60 -67 -72 -45 -164 -128 -233 -211 -27 -33 -112 -125 -187
-205 -225 -238 -278 -303 -361 -450 -71 -126 -153 -227 -211 -261 -23 -13 -23
-1 2 36 l19 29 -62 13 c-60 12 -97 37 -109 75 -8 23 -53 -7 -73 -47 -30 -65
-6 -138 58 -172 62 -32 208 -10 320 50 116 61 230 219 404 562 122 239 152
280 278 376 39 29 95 75 125 103 69 61 128 101 138 92 4 -4 -1 -13 -10 -20
-43 -32 -40 -117 7 -186 25 -38 95 -112 139 -147 15 -13 43 -54 62 -93 29 -60
32 -73 22 -90 -7 -11 -16 -20 -21 -20 -4 0 -5 -4 -2 -10 6 -9 -11 -50 -25 -60
-3 -3 -14 -36 -24 -73 -15 -56 -24 -70 -47 -83 -30 -15 -37 -42 -18 -61 7 -7
8 -19 4 -30 -5 -10 -7 -23 -6 -29 2 -16 -30 -27 -43 -14 -19 19 -24 10 -19
-29 4 -30 2 -39 -12 -45 -10 -4 -22 0 -29 8 -10 12 -96 30 -96 20 0 -3 12 -27
26 -55 14 -28 24 -52 22 -53 -8 -6 -166 -36 -188 -36 l-25 -1 28 -24 c18 -16
40 -25 62 -25 21 0 44 -9 62 -24 l27 -24 -34 -21 c-19 -11 -41 -21 -47 -21
-36 0 11 -64 52 -72 17 -3 19 -10 17 -43 -3 -38 -24 -67 -55 -78 -16 -5 9 -37
29 -37 13 0 19 -25 15 -59 -2 -7 5 -30 13 -52 15 -36 14 -39 -3 -48 -13 -8
-17 -18 -13 -38 5 -31 39 -73 58 -73 8 0 20 -12 28 -27 8 -16 26 -39 40 -52
14 -14 26 -32 26 -40 0 -9 13 -23 28 -32 25 -14 32 -33 70 -167 23 -83 42
-157 42 -164 0 -7 -14 -19 -30 -27 -26 -11 -35 -11 -64 3 -99 47 -246 -30
-246 -129 0 -38 -33 -72 -82 -85 -41 -12 -136 -71 -192 -121 -47 -41 -75 -99
-76 -155 -1 -140 141 -370 302 -491 l28 -21 -40 -26 c-54 -36 -75 -68 -60 -95
14 -26 42 -27 64 -2 24 27 123 74 137 65 6 -3 34 -10 63 -13 l51 -7 -34 -20
c-79 -45 -97 -62 -118 -105 -14 -29 -42 -61 -78 -89 -135 -104 -416 -424 -552
-630 -69 -104 -134 -231 -164 -320 -39 -119 -38 -204 5 -289 25 -48 29 -52 43
-38 12 11 12 19 4 35 -6 11 -11 32 -11 47 0 32 40 105 58 105 6 0 12 6 12 14
0 8 8 13 17 12 15 -1 20 19 34 136 10 76 25 161 34 190 47 144 190 355 350
513 84 84 229 195 254 195 6 0 11 -10 11 -23 0 -16 -14 -33 -45 -55 -42 -29
-45 -35 -45 -75 0 -29 7 -53 20 -70 27 -34 25 -44 -10 -74 -40 -33 -42 -96 -5
-150 13 -20 23 -39 21 -42 -53 -107 -66 -163 -44 -189 44 -50 61 -146 61 -349
0 -98 2 -123 13 -123 11 0 14 -17 14 -66 0 -57 3 -67 20 -71 11 -3 20 -12 20
-19 0 -8 11 -19 25 -24 14 -5 28 -16 31 -24 7 -17 -20 -72 -51 -106 -45 -48
-92 -139 -99 -189 -4 -27 -13 -65 -20 -83 -8 -18 -17 -58 -21 -89 -8 -62 11
-122 45 -146 11 -8 20 -25 20 -39 0 -38 18 -64 56 -80 27 -11 34 -20 34 -42 1
-36 19 -59 64 -77 21 -9 36 -22 36 -33 0 -9 7 -25 14 -34 15 -21 76 -48 107
-48 11 0 34 -11 51 -25 16 -13 47 -30 68 -36 95 -29 217 77 244 211 4 19 29
64 56 99 56 74 102 164 119 235 7 27 16 103 21 170 8 116 10 125 58 227 27 59
53 117 57 129 4 13 23 38 41 57 32 31 39 34 86 31 l53 -3 19 -75 c15 -61 20
-116 21 -290 2 -118 8 -233 14 -255 8 -30 8 -59 -1 -114 -11 -66 -10 -83 11
-185 45 -208 45 -212 31 -257 -14 -40 -12 -55 17 -168 5 -18 -3 -31 -36 -61
-39 -36 -41 -40 -41 -98 0 -61 0 -61 -43 -90 -46 -32 -55 -47 -88 -137 -23
-62 -36 -77 -131 -157 -60 -51 -150 -188 -265 -403 -54 -102 -60 -110 -91
-113 -36 -4 -36 -3 -21 -36 10 -22 8 -31 -15 -66 -31 -48 -32 -56 -5 -63 19
-5 17 -10 -25 -67 -25 -34 -46 -66 -46 -70 0 -4 9 -15 21 -26 18 -16 20 -26
14 -70 l-6 -51 46 -5 c25 -3 49 -9 53 -13 4 -4 -7 -33 -25 -65 l-32 -59 25
-16 c14 -9 32 -14 40 -11 20 8 19 -77 -1 -108 -14 -21 -14 -24 0 -36 24 -20
18 -72 -27 -202 -40 -115 -42 -130 -43 -233 0 -98 3 -116 26 -165 21 -46 25
-65 21 -117 -3 -50 0 -71 21 -116 14 -31 37 -63 51 -72 37 -25 108 -31 143
-13 19 10 37 12 51 7 37 -14 83 1 101 32 11 20 24 29 42 29 31 0 56 17 72 50
8 16 23 26 41 28 19 2 34 14 48 38 11 19 26 34 33 34 25 0 63 59 74 112 30
156 33 201 17 271 -23 98 -21 112 14 127 17 7 33 10 36 7 4 -3 1 -29 -6 -57
-9 -39 -9 -54 0 -65 10 -13 16 -13 42 1 41 21 50 15 31 -24 -14 -30 -14 -35
-1 -48 14 -14 21 -12 70 15 38 22 61 44 78 73 136 246 184 314 299 433 151
154 244 261 266 305 24 49 49 74 115 116 68 43 79 60 87 127 3 29 12 62 19 74
8 12 39 65 69 118 49 84 55 101 55 150 0 48 6 66 40 122 43 72 47 95 29 184
-9 49 -6 71 36 259 34 148 49 241 55 335 7 99 16 154 40 230 17 55 40 141 50
190 30 140 71 528 81 765 5 118 11 238 15 266 4 37 0 69 -15 117 -28 91 -37
222 -21 307 12 61 11 74 -8 136 -11 38 -23 107 -26 154 -4 47 -20 159 -35 250
-27 156 -29 188 -13 164 4 -6 40 -50 81 -98 l75 -88 45 6 c145 20 196 52 232
144 49 126 -1 345 -98 433 -60 54 -197 147 -255 174 -54 24 -153 45 -220 45
-21 0 -38 5 -38 10 0 6 14 52 31 103 37 106 42 185 16 234 -14 26 -17 60 -17
183 0 164 -6 192 -58 258 -57 73 -56 62 -60 437 -3 193 -5 377 -6 410 -1 53 3
67 33 114 l35 54 -23 18 c-13 11 -29 19 -37 19 -24 0 -15 28 11 34 34 9 32 19
-15 70 -26 28 -36 46 -28 48 10 4 8 15 -7 47 -16 36 -17 48 -7 74 10 26 9 33
-4 40 -13 8 -13 13 6 43 18 32 18 37 5 50 -14 14 -20 53 -15 97 1 10 -3 24 -8
30 -5 7 -13 50 -17 97 -9 112 -29 204 -56 265 -20 46 -22 67 -23 255 -2 176
-5 219 -25 305 -19 82 -22 112 -15 165 12 90 9 217 -6 281 -30 134 -72 250
-111 308 -98 146 -248 276 -403 349 -87 42 -234 179 -221 209 12 28 18 80 11
106 -3 13 -23 41 -44 63 -63 63 -144 166 -185 233 -38 63 -85 101 -124 101
-16 0 -25 8 -29 26 -12 48 -120 199 -189 263 -209 195 -393 270 -586 241z
m161 -21 c138 -22 275 -100 416 -235 65 -63 164 -197 164 -223 0 -34 -124 64
-143 112 -4 10 -12 15 -18 12 -12 -8 -51 24 -44 35 3 4 -3 14 -12 21 -12 10
-14 10 -9 2 8 -15 -3 -17 -23 -4 -7 5 -11 13 -7 19 3 5 -2 9 -11 8 -10 0 -18
4 -18 11 0 6 -4 15 -9 20 -5 5 -6 3 -2 -4 11 -20 -10 -15 -52 10 -20 12 -46
28 -57 35 -11 7 -44 24 -72 39 -37 19 -49 30 -40 36 8 6 7 7 -4 4 -9 -3 -44 3
-78 13 -57 18 -172 27 -216 17 -61 -15 -75 -20 -75 -29 0 -5 -6 -8 -12 -6 -7
3 -21 -4 -32 -14 -11 -10 -26 -18 -33 -18 -8 0 -11 -5 -7 -12 5 -8 2 -9 -9 -5
-9 3 -16 3 -16 -1 3 -19 -2 -25 -11 -12 -6 10 -10 11 -10 3 0 -13 -14 -32 -57
-76 -26 -27 -33 -51 -15 -52 6 0 12 -4 11 -9 0 -5 4 -12 9 -15 6 -3 14 -19 17
-34 l7 -27 -56 0 c-33 0 -56 -4 -56 -11 0 -5 -4 -8 -9 -4 -5 3 -13 0 -17 -6
-4 -8 -3 -9 5 -5 8 5 10 -3 9 -26 -3 -29 0 -33 25 -36 16 -2 27 -9 27 -18 0
-11 -8 -14 -27 -12 -23 2 -29 -1 -31 -21 -3 -19 -6 -21 -13 -10 -7 11 -9 10
-10 -6 l0 -20 -9 20 c-23 54 6 177 63 260 69 102 200 209 301 247 97 37 163
44 266 27z m-450 -503 c0 -3 -4 -8 -10 -11 -5 -3 -10 -1 -10 4 0 6 5 11 10 11
6 0 10 -2 10 -4z m1147 -42 c13 -8 30 -29 39 -47 25 -48 120 -174 181 -239 62
-66 68 -86 16 -55 -21 12 -44 22 -52 22 -8 0 -16 6 -18 13 -3 8 1 10 14 5 17
-6 17 -6 1 10 -9 9 -26 17 -37 17 -24 0 -38 19 -21 30 8 5 7 9 -4 13 -9 4 -16
11 -16 17 0 6 6 8 13 4 8 -5 7 -2 -2 9 -8 10 -16 15 -19 12 -3 -2 -11 3 -19
13 -8 9 -11 11 -7 3 5 -9 3 -12 -4 -7 -7 4 -12 13 -12 20 0 8 -7 19 -15 26 -9
7 -13 15 -10 18 3 3 14 -5 25 -18 11 -13 20 -19 20 -13 0 16 -38 46 -53 40 -7
-3 -24 1 -38 9 -13 7 -19 13 -12 14 13 0 5 40 -8 40 -5 0 -9 4 -9 10 0 5 8 7
18 3 13 -5 15 -3 5 7 -6 7 -34 15 -61 18 -121 11 -287 -87 -436 -258 -26 -30
-43 -46 -37 -35 35 70 220 234 317 280 97 46 188 53 241 19z m-972 -34 c3 -5
1 -10 -4 -10 -6 0 -11 5 -11 10 0 6 2 10 4 10 3 0 8 -4 11 -10z m95 -51 c0
-11 -3 -11 -24 -3 -23 9 -20 23 4 17 11 -3 20 -9 20 -14z m45 -29 c3 -5 2 -10
-4 -10 -5 0 -13 5 -16 10 -3 6 -2 10 4 10 5 0 13 -4 16 -10z m-360 -22 c3 -7
6 -23 8 -35 2 -12 6 -26 10 -30 4 -4 -3 -13 -15 -20 -22 -12 -22 -12 10 -13
46 0 73 -19 61 -42 -6 -10 -14 -16 -20 -13 -5 4 -6 11 -3 17 5 7 1 9 -9 5 -8
-3 -34 3 -56 14 -37 17 -41 23 -41 55 0 19 5 44 10 55 12 21 38 25 45 7z m592
-91 c-7 -20 -16 -37 -20 -37 -4 0 -22 14 -40 31 -23 23 -26 29 -12 24 46 -17
54 -16 66 4 18 28 20 22 6 -22z m-317 -27 c40 -17 63 -45 64 -79 1 -16 4 -27
7 -25 4 2 10 -3 13 -12 4 -10 14 -14 25 -11 14 3 18 1 14 -9 -8 -22 -84 21
-77 44 5 13 4 14 -4 3 -8 -11 -15 -9 -41 10 -18 13 -29 29 -26 37 3 9 -1 12
-15 7 -16 -5 -20 -2 -20 15 0 12 5 31 12 43 10 18 13 19 16 5 2 -9 16 -21 32
-28z m-135 -45 c26 -22 27 -24 8 -22 -12 0 -19 5 -16 11 4 5 -1 7 -10 3 -10
-3 -24 -4 -32 -1 -11 5 -12 9 -2 20 16 18 17 17 52 -11z m312 -121 c-3 -3 -12
-4 -19 -1 -8 3 -5 6 6 6 11 1 17 -2 13 -5z m33 -14 c0 -5 -2 -10 -4 -10 -3 0
-8 5 -11 10 -3 6 -1 10 4 10 6 0 11 -4 11 -10z m50 -4 c0 -3 -4 -8 -10 -11 -5
-3 -10 -1 -10 4 0 6 5 11 10 11 6 0 10 -2 10 -4z m960 -95 c84 -88 138 -129
242 -179 45 -23 112 -65 148 -94 79 -66 189 -194 228 -268 51 -96 104 -319
101 -423 -1 -30 -2 -29 -14 13 -12 41 -13 34 -8 -85 3 -71 9 -145 15 -164 18
-58 35 -196 36 -283 l0 -83 -8 71 c-9 82 -17 113 -36 132 -8 7 -14 19 -14 25
0 7 4 6 10 -3 5 -8 10 -10 10 -5 0 6 -9 21 -19 34 l-19 24 -6 -29 c-3 -16 -13
-78 -21 -138 -8 -60 -17 -111 -19 -113 -7 -7 1 221 9 239 3 9 7 57 8 108 2 85
1 91 -19 96 -15 4 -56 -13 -124 -50 -57 -31 -106 -56 -110 -56 -10 0 -57 54
-119 135 -30 39 -61 76 -69 83 -9 6 -12 12 -7 12 5 0 -1 9 -13 20 -49 46 -55
3 -17 -117 32 -101 32 -103 -10 -103 -76 0 -148 52 -131 96 5 14 4 15 -8 5
-11 -9 -15 -9 -20 1 -3 7 -3 1 0 -14 4 -16 2 -28 -4 -28 -5 0 -12 16 -15 35
-4 24 -21 50 -54 83 -26 26 -65 68 -85 93 -44 53 -113 189 -122 239 l-7 35 17
-35 c17 -34 18 -34 22 -11 4 27 -7 72 -43 169 -13 35 -21 71 -18 79 4 11 2 14
-5 9 -7 -4 -12 -4 -12 1 0 4 -3 19 -6 33 -6 24 -5 23 15 -5 41 -60 56 -79 79
-99 13 -12 51 -58 85 -103 34 -46 65 -83 69 -83 4 0 8 9 8 21 0 11 -4 17 -10
14 -5 -3 -10 1 -10 10 0 9 -11 31 -25 49 -14 18 -25 38 -25 44 0 6 -4 12 -8
14 -9 3 -92 123 -92 133 0 3 4 3 10 0 6 -4 7 1 3 11 -4 11 -8 13 -11 6 -7 -21
-19 -13 -33 19 -7 18 -25 46 -41 63 -16 17 -26 37 -23 46 4 8 3 11 -1 7 -8 -8
-70 83 -66 97 2 5 -5 6 -15 2 -16 -6 17 27 112 113 62 56 183 118 235 120 8 1
44 -30 80 -68z m-485 -356 c42 -34 141 -275 158 -385 2 -14 12 -43 22 -65 9
-22 18 -57 19 -78 1 -20 8 -43 15 -50 11 -10 11 -8 2 11 -21 40 -6 47 17 8 21
-36 31 -66 12 -36 -5 8 -10 11 -10 5 0 -5 14 -23 30 -39 17 -16 30 -34 30 -39
0 -6 11 -25 25 -43 28 -37 32 -56 10 -48 -8 4 -15 10 -15 16 0 5 6 6 13 2 6
-4 8 -3 4 1 -10 12 -38 15 -31 4 3 -5 3 -9 1 -9 -12 0 -77 113 -71 123 4 7 3
9 -1 4 -15 -13 -66 123 -96 258 -16 72 -35 144 -41 160 -23 63 -73 152 -111
197 -23 28 -36 51 -32 59 6 8 13 2 23 -17 8 -16 20 -34 27 -39z m-392 -635
c-4 -16 -2 -19 11 -14 28 11 8 -19 -27 -41 -47 -29 -54 -30 -37 -9 8 10 -5 3
-30 -17 l-45 -36 -17 21 c-13 16 -19 18 -26 9 -11 -16 -52 11 -52 34 0 14 3
13 21 -3 20 -18 21 -18 40 6 10 14 19 28 19 33 0 14 20 7 20 -8 0 -22 13 -18
29 7 l13 22 12 -22 12 -22 29 30 c34 36 35 36 28 10z m132 0 c-4 -14 -2 -20 8
-20 9 0 17 -5 19 -12 3 -9 15 -6 41 9 l36 22 -6 -32 c-6 -29 -5 -31 10 -18 11
9 17 10 17 2 0 -6 9 -11 20 -11 32 0 23 -17 -12 -23 -18 -3 -60 -15 -92 -26
-33 -12 -61 -19 -63 -17 -2 2 11 13 29 25 26 18 28 21 9 16 -16 -5 -21 -4 -17
4 16 25 -12 9 -33 -20 -13 -17 -25 -28 -28 -25 -3 3 0 13 8 22 12 15 11 16
-11 9 -14 -4 -36 -14 -48 -22 -13 -8 -26 -12 -30 -9 -3 3 0 6 6 6 7 0 12 5 12
11 0 6 -7 8 -15 5 -8 -3 -23 -9 -32 -12 -17 -5 -17 -5 0 6 9 6 15 15 13 19 -3
5 14 23 37 41 74 58 71 57 64 38 -9 -25 6 -22 33 7 28 30 33 31 25 5z m-335
-114 c0 -18 -71 -25 -127 -13 -36 9 -40 12 -27 24 10 10 19 12 27 5 16 -13
112 -23 99 -10 -5 5 -16 10 -23 11 -23 4 -40 18 -34 28 8 12 85 -28 85 -45z
m494 -1 c-18 -13 -16 -14 28 -15 26 0 50 -4 53 -10 4 -6 -21 -10 -69 -10 l-74
0 21 25 c12 13 31 25 41 25 20 0 20 0 0 -15z m-464 -25 c-33 -26 -52 -25 -21
0 13 11 28 20 35 20 6 0 0 -9 -14 -20z m950 -28 c0 -13 -3 -12 -15 4 -19 25
-19 40 0 24 8 -7 15 -20 15 -28z m-1147 8 c10 0 16 -4 12 -9 -4 -8 -47 -8 -83
-2 -2 1 0 6 4 12 3 6 16 8 28 5 11 -3 29 -6 39 -6z m307 -30 c-8 -5 -17 -7
-19 -4 -3 3 1 9 9 14 8 5 17 7 19 4 3 -3 -1 -9 -9 -14z m457 -13 c4 -7 0 -8
-11 -4 -10 4 -30 7 -44 7 -18 0 -23 3 -14 9 16 10 60 2 69 -12z m-797 -32 c0
-8 -6 -15 -14 -15 -8 0 -23 -3 -33 -6 -13 -4 -11 0 7 15 30 25 40 26 40 6z
m-10 -52 c0 -5 -11 -13 -25 -20 -14 -6 -25 -8 -25 -4 0 5 10 13 23 19 28 14
27 13 27 5z m850 -8 c18 -10 20 -14 8 -15 -9 0 -18 -5 -20 -11 -2 -5 -14 1
-27 15 -23 24 -23 26 -5 26 10 -1 30 -7 44 -15z m380 -5 l20 -20 -31 -68 c-62
-135 -82 -223 -96 -420 -3 -51 -9 -95 -14 -97 -14 -10 17 335 42 450 13 60 49
175 55 175 2 0 13 -9 24 -20z m-1295 -10 c-3 -5 -14 -10 -23 -10 -15 0 -15 2
-2 10 20 13 33 13 25 0z m919 -116 c5 -14 4 -15 -9 -4 -17 14 -19 20 -6 20 5
0 12 -7 15 -16z m400 -142 c4 -121 -8 -194 -29 -175 -4 5 -5 2 -1 -5 8 -13
-10 -42 -25 -42 -5 0 -9 8 -9 17 0 15 -2 14 -15 -3 -13 -18 -14 -17 -13 11 1
17 -2 43 -7 59 -7 25 -6 28 9 23 10 -4 16 -1 16 7 0 8 -5 16 -10 18 -7 2 -8
19 -4 48 6 35 9 40 15 25 9 -22 13 -7 9 34 -1 13 2 26 7 30 4 3 16 23 26 45
10 21 20 37 22 35 2 -3 6 -60 9 -127z m-169 88 c10 -12 24 -19 30 -17 7 3 5
-26 -5 -88 -13 -82 -19 -97 -52 -134 -50 -55 -155 -265 -179 -360 -27 -104
-35 -260 -19 -347 19 -102 71 -234 92 -234 5 0 26 -18 48 -40 22 -22 54 -43
71 -47 19 -3 35 -15 41 -29 6 -13 17 -24 23 -24 7 0 15 -9 18 -20 3 -12 14
-20 26 -20 18 0 21 -6 21 -44 0 -49 13 -65 37 -45 13 11 17 10 29 -6 8 -10 14
-28 14 -39 0 -32 16 -50 35 -42 24 9 55 -2 55 -20 0 -8 7 -28 15 -44 13 -25
20 -29 43 -24 19 4 32 1 41 -10 7 -8 18 -13 25 -10 6 2 23 -7 36 -21 13 -14
34 -25 46 -25 13 0 28 -9 34 -20 14 -27 26 -25 58 7 32 33 45 32 81 -9 l28
-31 11 31 c6 18 18 32 27 32 8 0 23 16 32 35 10 20 22 34 29 31 7 -3 18 2 25
10 7 8 19 12 27 9 8 -3 31 14 59 45 25 27 53 50 64 50 21 0 44 31 54 73 4 15
14 27 24 27 25 1 81 88 72 113 -10 28 -50 42 -58 21 -3 -8 0 -21 7 -27 10 -10
12 -8 7 6 -4 9 -2 17 3 17 6 0 11 -4 11 -10 1 -5 2 -16 3 -22 3 -18 -44 -78
-60 -78 -8 0 -20 -15 -27 -32 -13 -31 -14 -28 -21 75 -4 59 -9 122 -11 140 -3
18 -2 26 1 18 5 -11 8 -11 15 0 7 11 9 9 10 -6 l0 -20 9 20 c7 16 9 17 9 3 1
-9 -6 -24 -15 -32 -14 -14 -13 -16 10 -14 14 1 26 6 26 10 0 4 4 8 9 8 5 0 7
-10 4 -22 -3 -13 -2 -20 2 -16 4 4 8 21 7 38 -1 28 9 36 40 31 4 0 5 6 2 14
-4 8 -10 15 -15 15 -5 0 -9 7 -9 16 0 9 -6 14 -12 11 -8 -3 -14 5 -14 19 -2
19 1 22 15 15 20 -11 86 -80 80 -83 -2 -2 -13 -8 -24 -14 -32 -18 -30 -41 7
-60 18 -9 34 -18 36 -19 2 -2 -10 -27 -27 -56 l-30 -54 4 -414 4 -415 52 -75
c49 -72 52 -81 60 -161 5 -47 6 -119 3 -160 -5 -63 -2 -82 15 -120 11 -25 21
-62 21 -82 0 -53 -85 -314 -115 -354 -31 -40 -67 -63 -73 -45 -2 7 -11 2 -22
-11 -10 -13 -53 -45 -96 -72 -44 -27 -108 -68 -144 -91 -36 -23 -79 -49 -95
-57 -77 -39 -394 -86 -527 -79 -9 1 -57 43 -108 94 -50 52 -102 100 -115 107
-14 7 -25 17 -25 21 0 4 30 11 68 14 73 8 122 31 139 67 63 132 88 180 116
222 59 91 41 190 -60 328 -43 59 -89 88 -139 88 -35 0 -46 -7 -116 -80 -71
-73 -78 -84 -78 -121 0 -47 14 -79 35 -79 10 0 15 11 15 35 0 80 73 56 142
-45 39 -59 68 -144 68 -201 0 -55 -59 -98 -185 -134 -33 -9 -70 -23 -82 -31
-19 -12 -35 -11 -135 12 -101 23 -120 25 -180 15 -118 -19 -118 -19 -118 43 0
43 6 65 30 103 77 124 86 452 25 938 -3 22 -9 65 -12 95 -12 89 -8 368 6 450
6 41 23 147 37 235 14 88 29 183 34 210 5 28 12 70 16 95 4 25 10 50 14 55 4
6 13 28 19 50 7 22 16 49 20 60 5 11 14 38 21 60 28 91 65 175 74 172 20 -6
18 -47 -3 -83 -25 -41 -27 -86 -6 -104 19 -16 19 -34 0 -50 -18 -15 -13 -42
14 -80 10 -14 24 -50 31 -80 6 -30 16 -63 21 -72 5 -10 9 -25 9 -33 0 -8 5
-15 10 -15 14 0 12 27 -4 58 -21 42 -36 94 -30 104 4 5 -3 19 -14 31 -29 31
-37 70 -18 86 20 17 20 35 0 52 -19 15 -15 60 11 132 13 36 15 51 6 56 -16 10
-3 101 16 101 21 0 27 28 10 53 -8 12 -14 35 -14 50 0 22 3 26 17 22 25 -8 35
12 18 33 -30 35 -30 42 1 53 20 7 33 20 37 35 5 18 11 23 24 19 22 -7 32 24
19 67 -5 17 -6 42 -3 55 6 21 8 22 18 7 9 -11 19 -14 34 -10 31 10 43 37 32
75 -5 18 -7 39 -4 47 2 8 6 21 9 29 6 20 18 19 40 -5z m-240 -51 c4 -17 4 -33
1 -36 -3 -4 -6 3 -6 15 0 11 -4 24 -10 27 -13 8 -13 25 -1 25 5 0 12 -14 16
-31z m55 2 c0 -11 -26 -22 -34 -14 -12 12 -5 23 14 23 11 0 20 -4 20 -9z
m-1017 -45 c4 -10 -24 -14 -141 -19 -132 -6 -187 -14 -337 -53 -17 -4 -16 -3
3 9 12 7 19 17 15 22 -4 4 -3 5 3 2 14 -8 67 17 58 26 -7 6 20 14 71 20 17 2
96 5 176 6 115 1 148 -2 152 -13z m1028 -43 c0 -21 3 -49 5 -63 3 -14 0 -34
-5 -45 -5 -11 -13 -29 -17 -40 -7 -16 -9 -12 -12 19 -2 21 2 51 8 66 9 23 8
34 -4 58 -20 39 -20 42 4 42 16 0 20 -7 21 -37z m1126 -15 c-3 -7 -5 -2 -5 12
0 14 2 19 5 13 2 -7 2 -19 0 -25z m-1207 12 c0 -5 -8 -10 -17 -10 -15 0 -16 2
-3 10 19 12 20 12 20 0z m26 -96 c4 -38 2 -63 -6 -79 -11 -20 -10 -28 4 -50
16 -24 16 -25 -8 -25 -24 0 -25 -3 -24 -47 1 -73 -1 -83 -17 -83 -8 0 -15 -2
-15 -4 0 -2 -3 -13 -6 -23 -6 -16 -5 -16 9 2 22 27 21 3 -1 -39 -16 -30 -20
-32 -30 -17 -7 11 -14 13 -19 5 -21 -29 -206 -76 -308 -78 -24 -1 -31 -6 -33
-25 -2 -15 0 -21 7 -17 6 4 21 0 33 -8 28 -20 115 -21 187 -1 55 14 96 44 107
77 3 10 12 18 21 18 10 0 13 -6 9 -16 -3 -9 -6 -20 -6 -24 0 -5 -10 -19 -22
-31 -13 -12 -17 -19 -10 -15 6 4 12 3 12 -3 0 -10 -18 -24 -35 -27 -5 -1 -37
-10 -69 -19 -67 -20 -135 -21 -167 -5 -19 11 -20 10 -9 -10 6 -12 9 -24 6 -27
-7 -8 -53 29 -67 54 -7 12 -16 20 -20 17 -5 -3 -6 2 -3 10 4 12 0 16 -17 17
-17 1 -19 3 -7 6 17 4 17 7 -1 41 -24 47 -150 184 -162 176 -5 -3 -6 1 -3 9 6
17 -22 31 -32 16 -3 -6 5 -23 19 -37 19 -21 26 -41 30 -87 8 -86 17 -122 37
-140 16 -15 17 -13 14 21 -3 36 -2 37 16 18 10 -10 20 -32 22 -49 3 -30 25
-65 41 -65 5 0 7 7 4 14 -4 10 -1 13 9 9 7 -3 14 -9 14 -14 0 -15 55 -59 67
-55 7 3 10 -1 6 -10 -5 -14 12 -20 20 -6 2 4 3 2 1 -4 -1 -6 16 -23 39 -37 23
-15 34 -27 26 -27 -18 0 -205 118 -268 169 -45 37 -85 107 -97 169 -5 28 -10
32 -37 32 -23 0 -40 11 -74 48 -67 72 -98 128 -85 155 l11 22 0 -23 c1 -29 21
-19 21 11 1 20 1 21 11 4 8 -13 7 -22 -1 -32 -22 -26 -3 -60 42 -81 23 -10 49
-18 57 -16 9 2 12 -3 9 -16 -3 -12 2 -23 13 -31 24 -14 24 -1 4 84 -19 76 -19
95 0 95 15 0 20 -16 16 -57 -1 -12 3 -24 8 -27 5 -3 7 2 4 13 -9 34 32 32 67
-4 45 -46 69 -48 142 -9 71 37 90 41 108 18 11 -13 10 -16 -8 -21 -22 -5 -31
-23 -12 -23 5 0 12 -11 16 -25 7 -30 24 -33 24 -5 0 11 7 23 15 26 8 4 15 10
15 15 0 5 -7 9 -15 9 -8 0 -15 -5 -15 -11 0 -5 -5 -7 -11 -3 -7 4 -7 10 -1 16
6 6 8 18 5 27 -3 13 -2 12 7 -2 6 -9 16 -15 21 -12 5 4 6 11 3 17 -3 5 -6 29
-6 51 1 36 -1 40 -12 25 -11 -15 -16 -15 -39 -3 -15 8 -27 10 -27 5 0 -11 -71
8 -88 24 -10 10 20 21 150 53 90 23 172 45 182 49 19 7 19 7 1 -23 -10 -17
-35 -42 -56 -54 -21 -13 -39 -27 -39 -31 0 -4 -8 -4 -17 -1 -17 7 -17 6 0 -20
9 -15 14 -27 10 -27 -5 0 -2 -4 6 -9 9 -6 23 -4 39 7 19 12 25 13 32 2 5 -9
23 -11 60 -8 52 5 73 20 63 45 -3 7 0 13 6 13 6 0 11 11 11 25 0 14 8 37 17
52 l17 25 -35 -6 c-31 -5 -32 -5 -9 5 14 6 32 15 40 19 23 12 28 4 36 -56z
m94 15 c0 -11 -4 -17 -10 -14 -5 3 -10 15 -10 26 0 11 5 17 10 14 6 -3 10 -15
10 -26z m-1000 11 c0 -5 -13 -16 -29 -24 -16 -9 -68 -49 -115 -90 -48 -40
-115 -96 -149 -122 l-62 -48 72 80 c79 89 151 148 227 188 55 29 56 30 56 16z
m815 -60 c0 -42 -115 -88 -123 -49 -2 13 6 16 40 15 36 -1 43 2 44 19 1 11 2
26 3 33 2 25 36 8 36 -18z m316 -105 c-6 -71 -8 -132 -5 -137 8 -13 -6 -49
-17 -43 -5 4 -9 -3 -9 -14 0 -10 -3 -21 -8 -23 -11 -5 -107 -130 -125 -164
l-16 -29 -1 30 c0 24 -2 27 -11 15 -13 -19 -4 58 17 145 22 91 94 232 122 240
12 3 22 10 22 16 0 6 4 8 8 5 4 -2 8 4 8 15 0 10 -4 19 -8 19 -4 0 -8 -7 -8
-16 0 -8 -4 -12 -10 -9 -5 3 -10 -1 -10 -9 0 -9 -5 -16 -10 -16 -7 0 -7 8 1
23 17 33 60 89 65 84 3 -2 0 -62 -5 -132z m-1071 79 c0 -12 -4 -13 -21 -4 -11
7 -27 9 -35 6 -20 -8 -17 11 3 23 21 11 53 -3 53 -25z m140 -9 c0 -2 -9 -9
-20 -15 -16 -9 -20 -8 -20 5 0 8 9 15 20 15 11 0 20 -2 20 -5z m1928 -80 c21
-73 38 -186 22 -150 -25 61 -53 156 -57 195 -7 63 10 41 35 -45z m-1324 50
c-10 -8 -28 -14 -39 -14 -15 0 -13 3 10 14 40 18 53 18 29 0z m-526 -2 c-10
-2 -26 -2 -35 0 -10 3 -2 5 17 5 19 0 27 -2 18 -5z m172 -33 c12 -23 -4 -34
-64 -43 -47 -8 -76 6 -76 36 l0 22 18 -23 c21 -27 76 -28 78 -2 3 28 4 30 19
30 8 0 19 -9 25 -20z m-364 -50 c0 -12 -4 -16 -9 -11 -5 5 -6 14 -3 20 10 15
12 14 12 -9z m238 -19 c-2 -3 -12 3 -22 13 -16 17 -16 18 5 5 12 -7 20 -15 17
-18z m833 -63 c-2 -13 -4 -5 -4 17 -1 22 1 32 4 23 2 -10 2 -28 0 -40z m-400
-167 c-18 -21 -85 -48 -139 -56 -54 -8 -118 1 -118 16 0 6 9 8 20 4 13 -4 20
-2 18 5 -2 8 29 19 82 30 47 10 96 22 110 28 30 11 45 -4 27 -27z m-495 -155
c-59 -118 -115 -297 -128 -408 -3 -29 -9 -69 -14 -88 -4 -19 -16 -95 -26 -169
-15 -117 -16 -154 -7 -281 13 -169 29 -221 105 -354 59 -103 69 -123 163 -296
37 -69 76 -140 87 -157 11 -18 16 -33 11 -33 -4 -1 2 -9 15 -20 12 -10 39 -41
60 -68 20 -27 54 -63 74 -81 36 -31 37 -34 31 -84 -5 -50 -22 -88 -24 -56 -1
7 -1 18 0 23 1 5 -1 16 -5 25 -13 31 -11 49 5 44 9 -3 5 3 -8 13 -17 12 -26
14 -29 6 -2 -7 -8 -9 -14 -6 -6 4 -5 10 3 15 11 6 2 19 -34 52 -35 33 -46 39
-41 23 6 -19 5 -20 -11 -6 -10 8 -20 13 -23 10 -3 -3 -9 8 -13 24 -5 16 -12
32 -17 35 -4 3 -18 23 -31 44 -31 50 -37 47 -9 -4 13 -23 35 -65 50 -94 31
-62 47 -75 55 -46 3 11 9 19 13 16 10 -6 1 -45 -11 -45 -5 0 -9 -4 -9 -10 0
-21 20 -9 26 17 6 23 8 24 19 10 7 -9 15 -13 20 -9 4 4 0 -8 -10 -27 l-17 -34
52 -52 c59 -59 59 -68 9 -165 -20 -38 -29 -70 -29 -102 l0 -48 -69 0 c-68 0
-70 1 -76 28 -3 16 -1 41 5 56 16 43 12 92 -14 169 -13 40 -35 108 -49 153
-14 44 -51 134 -82 200 -74 157 -194 557 -209 694 l-6 55 15 -60 c9 -33 22
-82 31 -110 19 -60 135 -327 141 -322 2 2 -8 30 -22 62 -14 32 -24 64 -21 72
3 8 1 11 -4 8 -6 -3 -10 -1 -10 5 0 7 -11 35 -25 62 -45 88 -75 200 -90 328
-19 156 -19 210 0 330 8 52 22 151 31 220 12 93 28 158 61 255 60 172 93 242
106 219 6 -10 5 -24 -1 -38z m47 11 c12 -24 21 -49 21 -55 0 -7 4 -12 9 -12 8
0 27 -40 22 -48 -1 -1 3 -8 9 -15 12 -14 110 -178 110 -184 0 -3 13 -23 29
-46 15 -23 44 -75 63 -115 26 -53 37 -68 42 -56 3 9 3 22 -2 28 -4 6 -13 25
-20 41 -9 24 -9 26 1 11 6 -11 19 -27 28 -36 9 -10 15 -28 13 -41 -2 -13 -10
-67 -19 -121 -22 -140 -42 -366 -37 -420 3 -40 1 -48 -18 -58 -27 -15 -36 -6
-43 45 -4 25 -3 35 2 26 8 -12 12 -12 25 2 18 17 22 32 6 22 -5 -3 -10 -1 -10
4 0 6 5 11 10 11 6 0 10 4 10 10 0 12 -43 8 -52 -5 -11 -14 -10 55 2 159 6 49
9 91 7 93 -13 12 -39 -154 -41 -263 l-3 -125 -51 -30 -52 -30 -9 23 c-5 13 -5
33 1 47 6 17 5 27 -4 32 -7 4 -9 11 -6 15 4 3 15 -2 25 -12 15 -15 18 -15 21
-3 2 11 12 14 33 11 29 -4 30 -3 27 24 -3 27 -6 29 -43 29 -36 0 -40 3 -43 28
-2 15 -8 25 -13 21 -5 -3 -7 -10 -4 -15 4 -5 1 -9 -6 -9 -7 0 -25 -14 -40 -31
-16 -18 -34 -29 -42 -26 -27 10 -69 116 -65 161 3 22 1 53 -3 67 -7 26 22 135
33 124 3 -3 11 2 18 11 12 13 11 17 -1 26 -11 8 -11 9 3 4 11 -3 24 4 36 19
11 13 22 21 26 18 4 -4 7 11 6 32 0 105 5 148 20 153 12 4 13 2 3 -9 -15 -16
-17 -59 -3 -59 6 0 10 10 10 23 0 13 4 27 9 33 13 12 31 126 31 197 0 44 -7
74 -29 120 -32 68 -81 183 -81 192 0 14 10 1 29 -38z m434 -41 c-25 -79 -33
-86 -101 -86 -43 0 -121 72 -102 95 17 20 146 61 201 64 l26 1 -24 -74z m1465
24 c11 -18 10 -20 -13 -20 -24 0 -34 18 -18 33 10 11 17 8 31 -13z m-1760 -85
c19 -24 31 -49 27 -54 -3 -6 0 -8 8 -5 15 5 28 -16 32 -49 1 -11 6 -22 12 -25
13 -9 36 -53 30 -58 -6 -6 -154 196 -159 216 -2 8 -12 23 -23 33 -20 18 -19
18 10 2 17 -9 45 -36 63 -60z m1746 -11 c18 -7 12 -24 -10 -24 -8 0 -14 7 -14
15 0 17 2 18 24 9z m-1618 -40 c18 -14 18 -14 -6 -3 -31 14 -36 19 -24 19 6 0
19 -7 30 -16z m71 -10 c-3 -3 -12 -4 -19 -1 -8 3 -5 6 6 6 11 1 17 -2 13 -5z
m1574 -66 c7 -13 6 -18 -3 -18 -21 0 -50 40 -43 58 6 15 8 15 21 -3 9 -11 20
-28 25 -37z m-1232 25 c-1 -10 -4 -29 -8 -43 -7 -25 -7 -25 -19 9 -16 46 -15
51 8 51 13 0 20 -6 19 -17z m-859 -22 c0 -12 -20 -25 -27 -18 -7 7 6 27 18 27
5 0 9 -4 9 -9z m2040 -96 c7 -9 8 -15 2 -15 -5 0 -12 7 -16 15 -3 8 -4 15 -2
15 2 0 9 -7 16 -15z m43 -32 c-7 -2 -19 -2 -25 0 -7 3 -2 5 12 5 14 0 19 -2
13 -5z m-2123 -11 c0 -10 -26 -205 -40 -292 -26 -171 -22 -478 7 -558 6 -15 4
-15 -15 2 -14 12 -22 31 -22 53 0 32 -12 43 -25 23 -10 -16 -57 -12 -77 7 -25
22 -23 48 7 67 31 20 33 58 4 87 -19 19 -20 22 -4 39 24 26 13 46 -30 56 l-37
9 49 32 c57 37 87 68 79 81 -3 5 -32 17 -65 26 -52 14 -92 39 -80 50 2 2 23
13 47 25 23 12 42 25 42 30 0 25 -51 60 -96 66 -66 10 -76 18 -34 26 120 23
156 31 162 37 3 4 -4 28 -17 55 l-23 47 23 -3 c13 -1 33 -11 44 -21 19 -18 22
-18 47 -2 20 14 24 23 20 42 -5 19 -3 24 14 24 11 0 20 -4 20 -8z m2077 -14
c-3 -8 -6 -5 -6 6 -1 11 2 17 5 13 3 -3 4 -12 1 -19z m-1817 -38 c0 -11 -4
-20 -9 -20 -5 0 -7 9 -4 20 3 11 7 20 9 20 2 0 4 -9 4 -20z m1415 -71 c17 -5
40 -16 50 -24 19 -15 19 -16 -5 -9 -14 4 -32 9 -40 11 -8 3 -1 -4 17 -16 l32
-20 -17 -31 c-11 -21 -23 -29 -34 -26 -10 2 -18 0 -18 -5 0 -5 -12 -9 -28 -9
-15 0 -44 -11 -64 -25 -37 -25 -58 -31 -58 -17 0 4 -14 7 -30 8 -43 2 -47 10
-25 52 31 60 58 93 93 117 28 19 39 21 65 13 18 -5 46 -14 62 -19z m-1460 -69
c-3 -5 -11 -10 -16 -10 -6 0 -7 5 -4 10 3 6 11 10 16 10 6 0 7 -4 4 -10z m-15
-44 c0 -14 -4 -28 -10 -31 -6 -4 -10 7 -10 24 0 17 5 31 10 31 6 0 10 -11 10
-24z m-30 -19 c0 -5 -4 -5 -10 -2 -5 3 -10 14 -10 23 0 15 2 15 10 2 5 -8 10
-19 10 -23z m20 -31 c0 -3 -4 -8 -10 -11 -5 -3 -10 -1 -10 4 0 6 5 11 10 11 6
0 10 -2 10 -4z m-324 -114 c8 -5 4 -13 -12 -25 -23 -17 -24 -17 -24 1 0 29 14
39 36 24z m-26 -146 c0 -3 -4 -8 -10 -11 -5 -3 -10 -1 -10 4 0 6 5 11 10 11 6
0 10 -2 10 -4z m430 -136 c0 -5 -2 -10 -4 -10 -3 0 -8 5 -11 10 -3 6 -1 10 4
10 6 0 11 -4 11 -10z m-22 -68 c2 -7 -2 -10 -12 -6 -9 3 -16 11 -16 16 0 13
23 5 28 -10z m-3 -52 c-3 -5 -11 -10 -16 -10 -6 0 -7 5 -4 10 3 6 11 10 16 10
6 0 7 -4 4 -10z m159 -54 c8 -75 32 -164 51 -193 9 -13 13 -29 9 -35 -4 -6 -3
-8 3 -5 6 4 14 0 17 -9 3 -8 2 -12 -4 -9 -5 3 -18 0 -30 -7 -17 -11 -23 -9
-46 13 -22 22 -24 30 -15 47 7 13 17 19 26 16 8 -4 15 -1 15 6 0 6 -4 9 -9 5
-5 -3 -12 -1 -16 5 -3 5 -1 10 6 10 7 0 10 3 7 6 -4 3 -16 0 -29 -6 -19 -10
-24 -10 -34 4 -7 8 -15 13 -18 10 -6 -6 -39 51 -43 74 -3 18 -14 29 -14 14 0
-7 -4 -12 -10 -12 -5 0 -10 17 -10 37 0 35 1 36 15 17 8 -10 15 -13 15 -7 0
14 91 84 101 77 3 -2 9 -28 13 -58z m87 27 c-12 -20 -14 -14 -5 12 4 9 9 14
11 11 3 -2 0 -13 -6 -23z m-254 -69 c-7 -66 -14 -79 -33 -63 -8 6 -14 16 -14
22 0 6 7 2 15 -9 15 -19 16 -19 14 1 -1 11 1 28 6 38 4 9 5 30 3 47 -3 16 0
26 5 23 5 -3 7 -30 4 -59z m-296 29 c13 -16 12 -17 -3 -4 -10 7 -18 15 -18 17
0 8 8 3 21 -13z m559 7 c0 -5 -7 -10 -16 -10 -8 0 -12 5 -9 10 3 6 10 10 16
10 5 0 9 -4 9 -10z m9 -80 c0 -23 -1 -23 -8 -5 -5 11 -7 23 -4 28 2 4 -3 7
-12 7 -13 0 -14 2 -3 14 11 12 14 11 20 -3 4 -9 7 -27 7 -41z m-519 20 c0 -5
-4 -10 -10 -10 -5 0 -10 5 -10 10 0 6 5 10 10 10 6 0 10 -4 10 -10z m280 -65
c0 -8 -4 -15 -10 -15 -5 0 -10 7 -10 15 0 8 5 15 10 15 6 0 10 -7 10 -15z m31
-18 c-10 -9 -11 -8 -5 6 3 10 9 15 12 12 3 -3 0 -11 -7 -18z m-15 -28 c19 -22
19 -22 -3 -8 -26 16 -41 6 -23 -16 7 -9 10 -18 7 -21 -9 -10 -27 34 -21 50 8
21 17 20 40 -5z m11 -61 c2 -17 0 -19 -7 -8 -5 8 -6 18 -4 22 8 12 10 10 11
-14z m232 -77 l-2 -26 -4 28 c-2 15 -9 27 -14 27 -5 0 -9 5 -9 11 0 8 5 8 15
-1 8 -7 14 -24 14 -39z m-26 4 c-3 -9 -8 -14 -10 -11 -3 3 -2 9 2 15 9 16 15
13 8 -4z m46 -165 c1 -44 -1 -47 -36 -59 -35 -13 -37 -13 -64 18 -15 18 -29
27 -31 20 -2 -7 -4 4 -4 23 0 32 6 40 51 69 27 19 53 33 58 31 4 -1 8 6 8 16
2 29 17 -70 18 -118z m-551 6 c26 -13 56 -35 67 -48 44 -51 65 -87 59 -105 -4
-13 -3 -15 4 -5 7 11 16 3 35 -33 26 -45 26 -57 4 -103 -8 -17 -7 -25 2 -35
11 -10 12 -7 6 13 -6 19 -5 22 5 14 7 -7 9 -21 5 -34 -5 -17 -10 -19 -21 -9
-11 9 -14 8 -14 -4 0 -8 5 -17 11 -19 6 -2 1 -12 -10 -22 -19 -17 -21 -18 -21
-2 0 9 5 14 10 11 6 -3 10 -2 10 3 0 6 -7 13 -16 16 -15 6 -15 8 0 31 16 24
20 128 5 119 -8 -5 -31 50 -33 79 -1 12 -7 21 -14 20 -7 -2 -12 3 -12 10 0 7
-14 28 -31 47 -36 42 -36 41 23 -82 62 -131 66 -151 34 -183 -30 -30 -81 -33
-111 -7 -12 9 -36 40 -55 67 -18 28 -41 54 -49 59 -9 5 -30 24 -47 42 -29 31
-57 37 -33 8 12 -14 4 -34 -13 -34 -5 0 -7 8 -4 17 6 16 6 16 -12 0 -20 -18
-42 -23 -42 -8 0 5 7 14 15 21 8 7 15 29 15 49 0 61 82 126 163 130 10 1 39
-10 65 -23z m109 -3 c4 -12 -36 -25 -49 -17 -11 7 23 35 36 31 6 -2 11 -8 13
-14z m452 -170 c-1 -17 -3 -21 -6 -10 -2 9 -10 17 -16 17 -7 0 -6 4 3 10 20
13 20 13 19 -17z m-674 -49 c14 -15 21 -32 18 -41 -4 -9 -2 -14 3 -10 6 3 15
-3 22 -13 9 -15 9 -18 -1 -14 -8 3 -14 -2 -14 -10 0 -8 4 -13 9 -10 4 3 8 2 8
-2 0 -12 -63 -74 -74 -74 -6 0 4 13 22 29 19 17 28 32 22 36 -5 3 -10 2 -10
-4 0 -6 -6 -8 -14 -5 -8 3 -17 1 -21 -5 -4 -7 1 -9 12 -5 14 4 13 1 -5 -15
-13 -11 -21 -25 -18 -30 7 -11 -100 -79 -134 -85 -14 -3 -53 -36 -48 -41 11
-11 78 13 109 39 32 27 56 35 43 14 -4 -7 -3 -8 5 -4 6 4 9 11 6 16 -3 4 17
22 44 39 28 17 48 25 45 18 -2 -7 -20 -21 -39 -31 -19 -11 -33 -21 -31 -23 8
-8 66 27 76 47 6 11 8 20 4 20 -4 0 1 9 11 20 22 24 36 25 78 4 47 -24 63 -56
43 -83 -9 -12 -8 -13 4 -6 8 4 5 -2 -7 -14 -24 -23 -38 -28 -27 -8 6 9 5 9 -8
0 -8 -7 -18 -10 -21 -6 -4 3 -7 -1 -7 -10 0 -8 -8 -18 -17 -22 -10 -3 -36 -22
-58 -41 -22 -19 -31 -32 -21 -28 14 5 17 4 12 -4 -12 -19 -28 -14 -63 20 l-33
32 -20 -24 c-24 -28 -25 -43 -5 -60 13 -11 13 -14 -2 -26 -16 -12 -16 -15 -3
-24 19 -13 30 -13 30 0 0 17 14 11 48 -21 l33 -31 -23 -13 c-13 -6 -22 -18
-20 -25 4 -15 -18 -31 -31 -23 -5 3 -3 9 4 14 11 7 10 9 -4 9 -10 0 -25 -7
-33 -15 -24 -23 -51 -18 -74 15 -20 29 -23 87 -4 83 5 -1 10 12 11 29 l2 31
-22 -19 c-12 -11 -26 -25 -30 -32 -12 -18 -42 1 -55 35 -23 61 -23 84 -2 120
11 20 18 38 15 41 -6 6 -57 -18 -67 -32 -11 -15 -21 41 -15 81 3 19 13 46 21
58 23 35 184 137 246 156 41 12 50 10 75 -17z m-170 -4 c-22 -10 -58 -23 -81
-29 -23 -6 -53 -22 -69 -37 -15 -14 -29 -23 -32 -21 -2 3 12 20 31 38 42 40
107 68 156 68 l35 0 -40 -19z m528 -144 c1 -13 7 -30 13 -37 10 -13 44 -94 44
-105 0 -3 -4 -2 -10 1 -6 4 -10 -6 -11 -22 -2 -44 -3 -47 -19 -65 -13 -14 -18
-14 -42 -2 -15 8 -25 20 -23 27 3 6 1 25 -3 42 -6 23 -4 34 12 52 24 28 33 29
39 6 4 -14 5 -12 6 5 0 12 -3 22 -9 22 -5 0 -10 4 -10 10 0 5 8 7 18 4 14 -5
14 -3 -3 10 -14 12 -20 31 -22 69 -2 40 0 47 7 30 5 -13 11 -34 13 -47z m-738
18 c-3 -41 -18 -59 -58 -68 -27 -6 -27 -5 -16 16 18 35 59 88 68 88 4 0 7 -16
6 -36z m965 13 c0 -7 9 -18 20 -25 11 -7 20 -17 20 -23 0 -15 -45 31 -53 54
-4 11 -3 16 3 12 6 -3 10 -12 10 -18z m-324 -159 c12 -15 14 -19 4 -13 -9 6
-7 2 3 -8 17 -15 17 -19 6 -34 -10 -12 -10 -14 -1 -9 6 4 12 3 12 -3 0 -14
-52 -62 -60 -55 -3 3 6 14 19 25 16 13 19 19 8 19 -14 0 -30 -23 -32 -47 -1
-16 -36 -53 -51 -53 -27 0 -68 21 -56 29 6 4 -3 7 -22 7 -19 0 -41 6 -50 13
-14 12 -8 20 52 64 37 28 76 59 86 69 27 24 59 23 82 -4z m-126 4 c0 -10 -100
-85 -106 -79 -2 2 19 22 48 45 60 46 58 45 58 34z m-158 -112 c78 -59 184
-100 287 -111 118 -12 365 -11 453 2 63 9 86 8 167 -10 164 -36 222 -71 376
-226 91 -91 158 -134 405 -257 86 -43 84 -32 -4 16 l-78 43 98 12 c209 26 280
54 453 177 50 36 66 43 73 32 43 -64 77 -178 112 -377 24 -137 35 -394 18
-405 -6 -3 -20 9 -32 28 -44 72 -129 126 -280 180 -41 15 -97 38 -125 50 -79
37 -125 54 -196 76 -90 27 -164 79 -299 210 -78 76 -156 139 -245 198 -71 47
-165 112 -207 143 -91 68 -154 86 -258 74 -166 -18 -229 -19 -358 -9 -162 14
-196 20 -237 43 -16 9 -50 25 -76 34 -49 19 -125 89 -115 106 10 15 10 15 68
-29z m2520 15 c113 -17 148 -33 278 -125 114 -81 142 -110 169 -171 37 -83 67
-279 43 -279 -4 0 -9 -11 -10 -25 -7 -85 -82 -140 -205 -152 l-62 -5 -55 68
c-88 111 -228 251 -320 322 -47 36 -89 69 -93 73 -5 4 -4 15 1 25 5 11 12 46
16 79 4 36 12 62 21 67 7 5 33 38 56 73 23 36 47 65 53 65 6 0 55 -7 108 -15z
m-2192 -38 c15 -12 50 -62 50 -71 0 -3 -28 -2 -62 1 -35 3 -72 5 -83 5 -15 -1
-10 8 25 38 51 44 49 44 70 27z m-275 -110 c11 -12 10 -16 -6 -28 -18 -13 -18
-14 -2 -20 10 -3 25 -2 34 4 11 7 28 3 60 -13 24 -13 58 -27 74 -31 l30 -7
-27 -1 c-15 -1 -46 -8 -68 -17 -50 -20 -63 -13 -18 9 18 9 26 17 18 17 -14 0
-36 -12 -92 -53 -21 -15 -30 -16 -54 -6 -16 6 -23 13 -16 16 23 9 12 25 -12
19 -30 -7 -40 6 -31 42 5 20 8 23 16 11 6 -9 9 -10 9 -1 0 6 9 12 20 12 14 0
18 5 13 16 -4 11 1 22 12 30 23 17 23 17 40 1z m850 -61 c28 -16 28 -17 5 -12
-139 27 -333 12 -570 -45 -116 -28 -187 -51 -240 -78 -41 -21 -93 -44 -115
-51 -58 -18 -141 -67 -165 -97 -15 -19 -24 -23 -31 -16 -29 29 69 99 198 144
31 10 80 33 109 49 61 34 339 104 474 119 128 14 299 8 335 -13z m-85 -41 c36
-9 72 -18 80 -22 8 -3 20 -7 25 -8 31 -4 65 -19 65 -27 0 -6 -8 -7 -17 -3 -14
5 -15 4 -6 -6 10 -10 16 -9 28 1 8 7 19 9 23 5 4 -4 2 -10 -5 -12 -13 -5 -6
-33 8 -33 4 0 6 7 3 15 -4 9 0 15 9 15 11 0 15 -7 12 -22 -3 -20 -2 -21 8 -6
10 15 16 14 69 -13 33 -16 61 -36 65 -44 3 -8 8 -13 12 -11 10 6 75 -53 67
-61 -3 -4 -12 0 -19 8 -6 8 -19 20 -27 26 -13 10 -16 8 -16 -8 0 -15 5 -18 21
-13 18 6 18 5 6 -10 -12 -14 -12 -16 4 -10 12 5 16 4 11 -4 -6 -10 21 -52 79
-127 9 -11 0 7 -20 39 -29 46 -34 61 -23 68 9 6 5 7 -12 3 -24 -7 -24 -6 -7
11 17 18 19 17 53 -21 21 -24 33 -47 30 -57 -2 -10 1 -21 6 -25 7 -4 8 -1 3 7
-5 8 -3 11 6 8 8 -3 13 -13 13 -22 -1 -10 1 -15 4 -12 6 6 59 -82 64 -106 2
-7 6 -15 9 -18 16 -12 99 -246 144 -405 23 -81 23 -83 24 -60 0 11 -6 47 -14
80 -8 32 -13 60 -11 62 1 2 13 -20 26 -47 16 -35 26 -46 32 -38 5 8 6 3 3 -12
-4 -15 0 -33 9 -45 14 -19 15 -17 16 27 0 45 -16 105 -45 173 -7 17 -27 64
-44 105 -16 41 -35 74 -40 73 -6 -2 -8 4 -5 12 3 7 -8 34 -25 59 -17 24 -31
49 -31 55 0 6 -11 18 -25 27 -14 9 -22 21 -19 26 4 6 3 13 -2 17 -5 3 -26 29
-48 56 -32 42 -27 39 29 -20 80 -83 107 -120 97 -129 -4 -4 0 -6 8 -4 8 2 14
-3 13 -9 -2 -7 3 -13 11 -13 8 0 18 -5 22 -12 4 -7 3 -8 -4 -4 -8 4 -10 2 -6
-8 3 -8 12 -12 19 -10 9 4 12 0 9 -13 -6 -20 40 -116 50 -106 3 3 -1 21 -10
41 -8 19 -12 37 -10 39 2 2 26 -22 52 -53 27 -31 69 -80 93 -108 24 -27 57
-79 73 -115 78 -174 80 -177 113 -165 21 9 129 161 165 233 17 34 36 61 43 61
25 0 120 -73 150 -116 17 -24 39 -44 49 -44 16 0 18 12 19 143 1 78 0 147 -1
152 -2 6 -7 37 -12 70 -23 163 -80 386 -108 426 -25 34 -25 43 -2 30 21 -12
62 -45 43 -35 -10 5 -12 3 -7 -5 5 -7 14 -10 22 -7 7 3 17 0 21 -7 5 -7 24
-24 43 -39 19 -15 62 -53 96 -85 l61 -58 32 -182 c17 -100 36 -226 41 -280 5
-54 16 -116 24 -138 18 -49 20 -105 4 -157 -14 -48 4 -247 29 -305 10 -26 13
-54 9 -97 -3 -34 -10 -164 -15 -291 -15 -393 -59 -709 -128 -934 -29 -94 -37
-141 -44 -246 -4 -71 -14 -161 -23 -200 -35 -163 -88 -381 -97 -398 -6 -10 -8
-23 -6 -30 3 -7 11 3 17 21 16 44 30 25 30 -44 0 -40 -7 -62 -34 -107 -26 -43
-36 -73 -41 -124 -6 -59 -15 -80 -64 -158 -30 -49 -58 -92 -62 -95 -3 -3 -11
-14 -18 -25 -9 -15 -11 -16 -7 -2 7 22 0 22 -27 -4 -12 -11 -37 -27 -54 -34
-27 -11 -33 -20 -33 -44 0 -30 -16 -38 -31 -17 -4 4 -16 -1 -28 -13 -23 -23
-31 -101 -10 -101 8 0 8 -5 -1 -15 -15 -18 0 -20 20 -2 8 6 5 1 -6 -13 -12
-14 -27 -36 -34 -50 l-13 -24 -9 23 c-11 31 -15 26 -20 -30 -3 -25 -12 -57
-21 -70 -30 -42 -269 -280 -276 -274 -9 9 -3 20 11 20 14 0 20 37 7 46 -6 4
-4 9 6 12 9 4 13 3 10 -3 -3 -6 1 -10 10 -10 9 0 13 4 10 10 -3 5 1 20 10 33
9 14 18 35 20 47 2 13 7 25 11 29 4 3 4 -2 1 -11 -7 -21 3 -23 22 -5 10 10 12
9 9 -2 -2 -7 2 -15 7 -17 6 -2 12 7 13 21 1 15 7 35 12 46 6 10 8 19 6 19 -5
0 49 154 78 222 14 33 14 37 1 32 -8 -4 -15 -11 -15 -18 0 -6 -11 -24 -25 -39
-24 -25 -67 -99 -122 -212 -14 -27 -31 -57 -38 -65 -21 -24 -64 -140 -58 -155
3 -8 1 -15 -5 -15 -5 0 -9 -6 -8 -12 1 -15 -185 -330 -192 -324 -2 3 5 20 17
39 11 19 21 42 21 51 0 10 4 15 9 12 10 -7 76 113 66 122 -3 3 -10 0 -15 -8
-6 -8 -10 -10 -10 -4 0 6 7 17 15 24 8 7 14 18 13 24 -3 20 15 110 28 142 7
17 10 34 7 38 -4 3 -1 6 5 6 6 0 16 16 23 35 7 19 17 35 21 35 4 0 8 7 8 16 0
9 11 39 25 67 14 28 24 56 21 64 -3 7 1 13 9 13 11 0 29 37 40 80 5 17 18 49
32 75 60 114 24 181 -84 155 -135 -32 -141 -32 -211 -10 -125 39 -250 96 -270
122 -7 9 -19 24 -27 32 -8 8 -15 19 -15 25 0 6 -4 11 -10 11 -14 0 -12 -33 3
-50 10 -12 9 -12 -6 0 -12 9 -17 22 -14 38 6 32 -23 84 -43 76 -11 -4 -12 -2
-4 6 9 9 4 28 -20 76 -17 35 -35 62 -41 61 -14 -5 -19 -47 -5 -47 6 0 9 -4 5
-9 -6 -10 20 -61 66 -128 16 -23 29 -47 29 -53 0 -27 31 -69 46 -63 8 3 13 12
9 21 -5 12 -3 13 10 2 15 -12 15 -14 -2 -23 -26 -14 -25 -13 -18 -36 3 -12 11
-21 16 -21 6 0 7 5 4 10 -10 16 11 12 25 -5 11 -13 10 -14 -4 -9 -11 4 -16 1
-16 -10 0 -16 87 -66 115 -66 8 0 15 -4 15 -10 0 -5 11 -10 25 -10 14 0 25 -3
25 -8 0 -20 164 -72 206 -65 44 7 43 -7 -1 -43 -19 -16 -50 -42 -70 -59 -20
-16 -47 -36 -61 -43 -13 -7 -24 -17 -24 -23 0 -6 -4 -8 -8 -5 -5 3 -24 -8 -43
-25 -19 -16 -38 -29 -44 -29 -5 0 -46 -17 -90 -39 -44 -22 -99 -47 -122 -57
-24 -10 -39 -20 -34 -23 20 -13 -84 -9 -108 4 -15 7 -41 41 -61 80 -55 104
-87 117 -57 22 9 -28 19 -83 23 -122 9 -87 21 -126 34 -105 8 13 10 12 10 -2
0 -15 7 -17 43 -12 l42 5 41 -88 42 -88 22 49 22 49 -35 34 c-20 18 -43 33
-52 33 -33 0 29 46 85 63 30 9 79 35 108 57 29 22 56 40 61 40 5 0 11 3 13 8
2 4 26 24 53 44 28 21 55 42 62 48 7 5 15 10 17 10 3 0 31 16 62 36 31 20 60
32 65 27 8 -8 -136 -308 -164 -342 -21 -25 -193 -131 -239 -147 -9 -3 -24 -22
-34 -42 -9 -21 -25 -49 -36 -64 -12 -17 -15 -29 -8 -33 8 -5 7 -11 -1 -21 -16
-20 -29 -17 -29 6 0 10 -6 25 -13 32 -12 10 -12 15 0 26 17 17 17 42 0 42 -8
0 -24 -12 -38 -26 -13 -14 -19 -24 -14 -22 6 2 11 -2 13 -7 1 -6 -2 -10 -8 -9
-5 1 -19 2 -31 3 -16 1 -19 5 -14 19 19 43 33 87 29 91 -3 3 -68 -11 -116 -25
-15 -4 -15 -1 -2 41 17 58 11 61 -80 42 -73 -15 -72 -16 -51 37 7 17 6 17 -21
3 -16 -8 -38 -24 -48 -36 -22 -25 -58 -29 -50 -6 7 18 -9 19 -38 4 -16 -8 -24
-8 -35 4 -13 13 -10 24 27 91 24 44 39 81 34 86 -5 4 -30 2 -56 -4 -66 -18
-72 -6 -36 66 34 69 31 78 -36 85 -51 6 -51 6 -35 52 10 29 9 35 -15 60 l-27
28 44 59 c43 56 50 84 21 84 -20 0 -18 6 16 61 16 27 25 49 20 49 -19 0 -10
15 18 31 20 11 47 51 86 125 114 215 192 329 282 411 69 62 87 86 105 132 37
100 50 120 95 146 l44 26 0 64 c0 63 1 65 40 96 45 36 48 52 24 123 -11 31
-14 59 -9 84 14 70 8 147 -20 257 -24 95 -26 120 -20 185 10 95 8 131 -9 194
-9 38 -10 71 -4 131 13 107 3 261 -23 365 -31 127 -32 143 -16 180 l15 35 -4
-35 c-3 -21 3 -54 15 -85 l20 -50 3 65 c1 36 2 81 2 100 1 33 2 34 56 46 30 6
69 14 85 18 l30 7 -25 -15 c-14 -8 -46 -18 -72 -21 -52 -7 -61 -20 -49 -63 5
-16 12 -77 16 -136 4 -58 11 -106 15 -106 5 0 11 23 15 50 4 28 11 50 17 50 5
0 7 4 3 9 -3 5 -1 13 5 16 6 4 8 15 5 26 -4 11 -2 19 4 19 6 0 11 -8 11 -18 0
-10 3 -22 7 -26 10 -9 12 -34 18 -186 3 -74 10 -139 15 -144 7 -7 10 -1 10 15
0 35 10 42 37 24 22 -15 23 -14 23 10 0 14 -5 25 -11 25 -5 0 -7 5 -3 11 4 8
9 7 15 -2 4 -7 10 -11 12 -9 9 9 75 235 82 279 4 24 16 52 26 62 10 10 19 25
19 33 0 20 17 29 24 14 4 -9 5 -8 5 2 -4 58 2 90 17 90 11 0 14 -6 9 -20 -4
-13 -2 -20 6 -20 17 0 5 190 -12 201 -10 6 -8 12 8 26 38 33 103 172 103 220
0 27 -4 42 -10 38 -5 -3 -10 -27 -10 -53 0 -65 -16 -88 -25 -36 -15 85 -49
211 -75 279 -4 11 -13 38 -20 60 -21 66 -60 149 -67 142 -3 -4 -1 -13 5 -20 7
-8 9 -17 5 -20 -3 -4 -2 -7 4 -7 6 0 16 -20 23 -45 7 -25 17 -48 21 -51 5 -3
9 -16 9 -29 0 -13 5 -27 10 -30 6 -3 10 -17 10 -30 0 -13 5 -27 10 -30 6 -4 8
-10 6 -13 -2 -4 3 -32 11 -62 8 -30 18 -73 22 -95 4 -23 11 -46 15 -53 9 -15
-12 -112 -24 -112 -4 0 -10 -9 -13 -21 -3 -12 -10 -18 -15 -15 -6 3 -13 -5
-16 -19 -4 -14 -10 -25 -14 -25 -5 0 -33 -20 -63 -45 -30 -25 -58 -49 -64 -53
-28 -21 -148 -67 -202 -77 -35 -7 -63 -11 -63 -9 0 18 15 31 31 27 23 -6 22
-8 4 42 -20 57 -18 131 5 194 14 35 19 64 15 83 -6 23 -2 33 14 44 12 9 21 21
21 28 0 17 -37 28 -44 12 -2 -6 -4 3 -4 19 0 17 2 24 5 18 2 -7 19 -13 36 -13
21 0 28 3 19 9 -11 7 -11 9 1 14 23 9 32 65 14 85 -22 24 -67 112 -67 130 0 8
8 21 18 28 24 18 8 41 -58 82 -73 43 -80 40 -32 -12 47 -51 60 -97 42 -150
l-12 -36 -28 20 c-48 34 -46 22 3 -16 44 -34 59 -65 38 -79 -5 -3 -12 -1 -16
4 -3 6 -25 20 -50 32 -24 12 -42 26 -39 30 3 5 -2 6 -12 2 -13 -5 -7 -14 32
-49 26 -24 51 -41 56 -38 12 8 10 -10 -4 -24 -9 -9 -7 -12 10 -12 22 0 28 -16
14 -35 -4 -5 -27 -21 -52 -34 -25 -13 -52 -30 -60 -38 -13 -13 -12 -14 10 -7
14 4 33 8 43 8 9 0 17 5 18 11 1 5 4 -1 9 -15 l7 -25 11 28 c6 15 16 27 22 27
13 0 13 -90 1 -123 -11 -28 -62 -82 -110 -116 -17 -12 -31 -27 -31 -33 0 -12
44 14 82 50 15 14 30 24 32 21 2 -2 5 -31 7 -64 3 -63 -13 -114 -50 -161 -11
-14 -25 -50 -32 -80 l-12 -54 -48 0 c-39 0 -50 -4 -66 -26 -17 -23 -21 -24
-47 -13 -26 12 -30 11 -47 -10 -24 -29 -24 -57 -1 -70 16 -9 16 -11 -3 -25
-11 -9 -26 -13 -33 -11 -25 9 -53 -14 -48 -41 4 -20 -1 -27 -32 -39 -20 -9
-42 -13 -50 -10 -8 3 -23 -6 -34 -20 -19 -24 -68 -35 -68 -15 0 5 -12 13 -27
16 -16 4 -36 13 -45 21 -9 8 -21 12 -26 9 -11 -6 -25 -63 -23 -87 1 -8 -7 -23
-18 -33 -16 -14 -26 -16 -55 -8 -35 10 -35 10 -56 -34 -17 -34 -27 -44 -46
-44 -13 0 -24 4 -24 8 0 5 -17 32 -39 60 -26 35 -46 78 -61 134 -38 135 -60
166 -80 112 l-10 -26 -21 26 c-11 14 -24 24 -29 21 -5 -3 -11 4 -15 15 -3 11
-13 20 -21 20 -11 0 -14 18 -14 86 0 68 -3 84 -13 76 -10 -8 -12 12 -13 96 -3
203 -18 299 -53 336 -25 27 -26 43 -5 96 18 44 30 43 37 -5 2 -16 5 7 6 51 0
45 3 97 6 115 5 33 5 33 -7 9 -17 -36 -17 -35 -33 -14 -25 34 -19 87 15 119
35 33 38 64 10 90 -14 13 -20 31 -20 61 0 39 4 45 43 71 35 24 42 35 45 67 2
22 -3 47 -12 61 -9 14 -16 32 -16 42 0 33 40 84 78 100 20 8 71 45 112 82 91
81 145 119 226 154 119 52 334 72 464 42z m669 -490 c0 -5 -6 1 -14 15 -8 14
-14 30 -14 35 0 6 6 -1 14 -15 8 -14 14 -29 14 -35z m219 -65 c31 -1 71 -14
67 -20 -3 -5 3 -6 12 -4 10 2 52 -13 93 -34 60 -30 74 -41 72 -57 -3 -19 -3
-19 10 -2 13 17 16 17 75 -4 34 -13 60 -26 57 -31 -3 -4 1 -5 9 -2 41 16 21
-50 -48 -156 -44 -69 -102 -140 -114 -140 -4 0 -20 28 -36 63 -15 34 -39 85
-51 113 -13 28 -45 75 -71 105 -27 30 -83 96 -126 146 l-78 92 61 -34 c33 -19
64 -34 68 -35z m-191 -2 c-3 -8 -6 -5 -6 6 -1 11 2 17 5 13 3 -3 4 -12 1 -19z
m72 -213 c0 -5 -4 -3 -9 5 -5 8 -9 22 -9 30 0 16 17 -16 18 -35z m-57 -567
c-7 -7 -12 -8 -12 -2 0 6 3 14 7 17 3 4 9 5 12 2 2 -3 -1 -11 -7 -17z m-22
-16 c0 -4 -12 -16 -26 -27 -14 -10 -35 -27 -46 -37 -12 -10 -26 -18 -32 -18
-6 0 3 10 18 23 16 12 39 32 50 44 22 23 36 29 36 15z m33 -52 c-3 -12 -8 -19
-11 -16 -5 6 5 36 12 36 2 0 2 -9 -1 -20z m-139 -49 c4 -5 -3 -7 -14 -4 -23 6
-26 13 -6 13 8 0 17 -4 20 -9z m-124 -211 c0 -5 -2 -10 -4 -10 -3 0 -8 5 -11
10 -3 6 -1 10 4 10 6 0 11 -4 11 -10z m117 -47 c-3 -10 -5 -4 -5 12 0 17 2 24
5 18 2 -7 2 -21 0 -30z m-1303 -110 c18 -64 18 -93 -3 -119 -12 -15 -21 -33
-21 -40 0 -7 -12 -21 -27 -31 -34 -22 -53 -39 -53 -49 0 -4 11 3 24 15 27 25
48 11 22 -15 -9 -8 -16 -25 -16 -37 1 -21 1 -21 24 5 13 15 26 32 28 39 2 7
21 14 41 15 34 3 36 2 22 -12 -17 -17 -20 -28 -6 -19 6 3 8 -13 5 -40 -3 -28
-1 -45 5 -45 6 0 11 7 11 15 0 8 5 15 11 15 5 0 8 4 4 9 -3 5 2 17 11 26 22
22 46 2 39 -34 -4 -20 -3 -22 3 -7 6 14 11 16 16 8 4 -7 11 -10 16 -7 4 3 7
-20 5 -51 -2 -47 0 -54 12 -42 7 8 15 24 18 37 2 13 9 29 16 37 9 11 8 14 -7
15 -16 1 -16 2 -2 6 9 2 23 22 32 44 18 44 16 43 50 27 22 -9 30 -8 48 8 18
15 20 16 9 2 -9 -12 -10 -18 -2 -18 7 0 5 -10 -6 -27 l-17 -28 24 20 c39 31
50 47 51 74 0 14 3 20 6 12 4 -11 7 -11 13 0 7 10 11 10 24 0 8 -7 21 -9 27
-5 8 5 9 3 5 -5 -5 -8 -3 -12 5 -10 24 3 39 -1 37 -8 -1 -5 4 -20 10 -35 12
-29 26 -36 37 -17 4 5 14 9 23 7 17 -3 47 -118 31 -118 -5 0 -9 -7 -9 -16 0
-9 5 -12 11 -8 8 5 10 -3 7 -27 -3 -19 -1 -42 4 -52 7 -13 1 -35 -21 -83 -27
-57 -51 -83 -51 -53 0 5 6 7 13 3 6 -4 9 -4 5 0 -4 5 3 25 16 45 28 44 41 81
28 81 -6 0 -13 -12 -16 -26 -10 -38 -57 -105 -69 -97 -6 4 -7 1 -2 -6 9 -15
-32 -61 -55 -61 -22 0 -49 -68 -44 -110 2 -20 -6 -52 -21 -84 -14 -29 -25 -58
-25 -64 0 -7 -5 -12 -11 -12 -5 0 -7 5 -3 12 5 7 3 8 -5 4 -7 -5 -10 -14 -7
-22 3 -8 0 -11 -10 -7 -10 4 -12 0 -8 -11 5 -12 2 -15 -12 -9 -12 4 -15 3 -10
-6 6 -9 -5 -11 -45 -7 -29 2 -55 9 -57 15 -2 6 -8 9 -12 6 -5 -3 -17 6 -26 21
-17 25 -17 30 0 98 22 85 41 124 72 148 12 10 28 34 34 54 20 58 37 87 44 72
3 -7 3 -3 0 10 -3 12 -1 22 3 22 5 0 10 19 11 43 1 32 -1 37 -8 22 -5 -11 -9
-30 -9 -43 -1 -12 -8 -25 -16 -28 -8 -4 -15 -12 -15 -19 0 -7 -6 -18 -14 -24
-11 -10 -15 -8 -19 6 -4 16 -6 15 -12 -4 -4 -13 -11 -21 -15 -18 -4 2 -5 -6
-3 -20 4 -17 -4 -33 -31 -60 -20 -19 -36 -39 -36 -43 0 -4 7 1 14 11 22 29 25
19 6 -19 -10 -20 -27 -69 -36 -110 -16 -66 -20 -74 -41 -74 -27 0 -64 17 -75
34 -4 6 -8 22 -8 36 0 20 2 22 10 10 5 -8 10 -12 10 -8 0 3 3 14 6 22 4 12 2
15 -9 11 -16 -7 -13 24 12 112 14 51 66 164 73 158 2 -3 2 9 0 26 -3 22 -7 27
-13 18 -8 -12 -10 -12 -18 -1 -9 16 -21 -15 -21 -58 0 -17 -3 -21 -8 -12 -6 9
-12 5 -20 -13 -16 -35 -15 -43 3 -19 13 16 13 12 -1 -24 -9 -24 -25 -74 -34
-110 -19 -73 -41 -89 -74 -56 -30 29 -10 171 43 316 25 69 27 85 7 69 -11 -9
-15 -9 -19 1 -3 7 -6 -2 -6 -21 -1 -19 -13 -59 -27 -88 -14 -30 -23 -61 -20
-69 3 -8 2 -13 -3 -10 -14 9 -21 -19 -14 -58 5 -34 4 -36 -20 -36 -38 0 -46
24 -41 125 3 70 10 104 31 152 15 34 31 60 35 57 4 -3 8 -1 8 5 0 17 -20 23
-35 11 -7 -6 -17 -25 -20 -41 -4 -16 -18 -50 -32 -74 -13 -25 -22 -49 -18 -55
4 -6 -1 -7 -12 -3 -15 5 -16 3 -5 -8 6 -7 12 -22 12 -33 0 -18 -2 -19 -15 -5
-23 22 -22 144 1 204 9 22 20 63 24 92 6 37 22 71 52 113 66 94 83 117 101
135 10 9 17 23 17 31 0 20 18 18 24 -3z m727 -36 c-10 -9 -11 -8 -5 6 3 10 9
15 12 12 3 -3 0 -11 -7 -18z m-276 -107 c3 -5 1 -18 -4 -27 -6 -11 -11 -13
-11 -5 0 7 -4 11 -9 7 -5 -3 -13 0 -17 6 -5 9 0 10 14 7 23 -6 31 7 10 15 -10
4 -10 6 -1 6 6 1 15 -3 18 -9z m55 -24 c0 -2 -9 -6 -20 -9 -11 -3 -20 -1 -20
4 0 5 9 9 20 9 11 0 20 -2 20 -4z m-445 -106 c3 -5 1 -10 -4 -10 -6 0 -11 5
-11 10 0 6 2 10 4 10 3 0 8 -4 11 -10z m592 -32 c-3 -7 -5 -2 -5 12 0 14 2 19
5 13 2 -7 2 -19 0 -25z m-750 -340 c-3 -8 -6 -5 -6 6 -1 11 2 17 5 13 3 -3 4
-12 1 -19z m634 -21 c-10 -9 -11 -8 -5 6 3 10 9 15 12 12 3 -3 0 -11 -7 -18z
m-84 -119 c-3 -8 -6 -5 -6 6 -1 11 2 17 5 13 3 -3 4 -12 1 -19z m-37 -122 c0
-2 -8 -10 -17 -17 -16 -13 -17 -12 -4 4 13 16 21 21 21 13z m548 -1121 c-3 -3
-9 2 -12 12 -6 14 -5 15 5 6 7 -7 10 -15 7 -18z m157 -205 c3 -5 1 -10 -4 -10
-6 0 -11 5 -11 10 0 6 2 10 4 10 3 0 8 -4 11 -10z m45 -75 c-7 -9 -15 -13 -17
-11 -7 7 7 26 19 26 6 0 6 -6 -2 -15z m920 -36 c0 -31 -4 -48 -10 -44 -5 3
-10 -1 -10 -10 0 -9 -4 -13 -10 -10 -5 3 -10 0 -10 -7 0 -7 -17 -22 -37 -33
-21 -11 -43 -26 -49 -34 -9 -11 -11 -11 -11 3 0 9 4 16 8 16 4 0 6 8 4 18 -1
9 0 11 2 5 6 -16 8 -16 43 2 30 16 41 44 18 46 -10 0 -10 2 0 6 6 2 9 10 6 15
-4 7 -2 8 5 4 6 -4 9 -12 6 -17 -4 -5 -1 -9 4 -9 6 0 11 8 11 17 0 17 21 83
27 83 2 0 3 -23 3 -51z m-86 -73 c-3 -9 -10 -16 -15 -16 -5 0 -4 9 3 20 14 22
21 20 12 -4z m-400 -131 c-4 -8 -8 -15 -10 -15 -2 0 -4 7 -4 15 0 8 4 15 10
15 5 0 7 -7 4 -15z m-174 -25 c0 -5 -4 -10 -10 -10 -5 0 -10 5 -10 10 0 6 5
10 10 10 6 0 10 -4 10 -10z m297 -32 c-3 -8 -6 -5 -6 6 -1 11 2 17 5 13 3 -3
4 -12 1 -19z m153 8 c0 -2 -7 -9 -15 -16 -13 -11 -14 -10 -9 4 5 14 24 23 24
12z m-300 -46 c0 -5 -4 -10 -10 -10 -5 0 -10 5 -10 10 0 6 5 10 10 10 6 0 10
-4 10 -10z m87 -72 c-3 -8 -6 -5 -6 6 -1 11 2 17 5 13 3 -3 4 -12 1 -19z
m-150 -40 c-3 -7 -5 -2 -5 12 0 14 2 19 5 13 2 -7 2 -19 0 -25z m-710 -10 c-3
-8 -6 -5 -6 6 -1 11 2 17 5 13 3 -3 4 -12 1 -19z m675 -14 c-8 -15 -9 -15 -15
0 -4 10 -3 15 3 11 6 -3 10 2 11 12 0 10 3 13 5 6 3 -7 1 -20 -4 -29z m-552
-57 c11 -5 9 -6 -4 -4 -11 1 -21 9 -23 17 -3 10 -2 11 4 4 4 -6 15 -14 23 -17z
m17 17 c-3 -3 -12 -4 -19 -1 -8 3 -5 6 6 6 11 1 17 -2 13 -5z m-130 -26 c-3
-8 -6 -5 -6 6 -1 11 2 17 5 13 3 -3 4 -12 1 -19z m-347 -45 c0 -5 -5 -15 -10
-23 -8 -12 -10 -11 -10 8 0 12 5 22 10 22 6 0 10 -3 10 -7z m936 -169 c-4 -9
-2 -22 4 -29 7 -8 6 -12 -4 -12 -11 0 -13 14 -7 50 0 4 4 7 7 7 3 0 3 -7 0
-16z m-982 -191 c-51 -135 -63 -238 -39 -318 10 -33 23 -66 29 -74 6 -8 11
-54 11 -102 0 -54 -3 -82 -9 -72 -4 8 -6 40 -4 70 4 44 -1 68 -21 117 -22 52
-26 76 -25 166 0 97 3 114 42 229 23 67 43 135 44 150 1 14 3 5 5 -21 3 -37
-4 -70 -33 -145z m846 180 c0 -13 -45 -118 -53 -124 -4 -3 -5 -13 -2 -21 4 -9
2 -19 -4 -23 -14 -8 -14 -45 0 -45 5 0 7 4 4 10 -4 6 1 7 11 3 14 -5 13 -8 -7
-19 -18 -9 -26 -9 -31 -1 -5 8 -8 6 -8 -5 0 -10 -2 -18 -4 -18 -2 0 -11 -3
-20 -6 -13 -5 -14 -1 -6 28 25 85 5 117 -56 93 -30 -12 -35 -12 -22 -2 10 8
15 16 12 19 -2 3 3 5 13 5 35 0 43 3 43 17 0 7 10 20 23 29 12 8 36 26 52 41
29 25 55 34 55 19z m-235 -113 c-3 -5 -12 -10 -18 -10 -7 0 -6 4 3 10 19 12
23 12 15 0z m-25 -30 c0 -5 -5 -10 -11 -10 -5 0 -7 5 -4 10 3 6 8 10 11 10 2
0 4 -4 4 -10z m55 -124 c14 -64 15 -92 7 -122 l-10 -39 -1 45 c-1 25 -8 72
-16 105 -17 70 -18 95 -6 95 5 0 16 -38 26 -84z m265 22 c0 -5 -7 -8 -15 -8
-8 0 -12 -6 -9 -14 5 -13 -34 -31 -45 -21 -2 3 1 5 7 5 6 0 10 6 8 13 -1 6 -1
9 1 5 8 -15 22 -8 17 7 -4 9 0 15 10 15 10 0 13 6 10 18 -5 14 -4 15 5 2 6 -8
11 -18 11 -22z m-734 -25 c6 -13 14 -20 17 -16 19 18 -1 -82 -24 -129 -5 -10
-9 -35 -10 -55 -1 -43 -26 -130 -28 -98 -2 19 -2 19 -16 2 -12 -17 -14 -15
-19 25 -9 67 -12 217 -4 212 3 -2 4 5 1 16 -3 11 -2 31 1 45 6 22 11 26 39 23
21 -2 35 -11 43 -25z m657 -2 c-3 -11 -11 -22 -19 -25 -11 -4 -11 0 -2 19 13
30 28 33 21 6z m-3 -41 c-8 -5 -22 -9 -30 -9 -10 0 -8 3 5 9 27 12 43 12 25 0z
m-534 -132 c-2 -40 -5 -80 -6 -88 -1 -13 -2 -13 -9 0 -5 8 -5 40 -1 70 4 30 6
58 3 63 -4 7 5 27 13 27 3 0 3 -33 0 -72z m84 19 c0 -31 -6 -61 -15 -73 -8
-10 -15 -14 -15 -7 0 6 4 14 9 17 5 3 7 31 5 61 -2 32 0 55 6 55 6 0 10 -24
10 -53z m143 23 c3 -11 0 -20 -6 -20 -7 0 -6 -4 3 -10 8 -5 11 -12 7 -17 -5
-4 -12 -1 -18 7 -8 13 -10 13 -19 0 -7 -12 -10 -8 -9 15 0 17 3 24 6 18 9 -24
23 -13 17 13 -5 18 -3 25 3 21 6 -4 13 -16 16 -27z m-243 -9 c0 -5 -7 -12 -16
-15 -14 -5 -15 -4 -4 9 14 17 20 19 20 6z m140 -52 c0 -11 -4 -17 -10 -14 -5
3 -10 15 -10 26 0 11 5 17 10 14 6 -3 10 -15 10 -26z m-190 -30 c-7 -13 -8
-19 -2 -15 6 3 13 3 16 -2 2 -4 -4 -9 -15 -9 -22 -2 -23 0 -6 45 7 21 13 28
15 19 2 -9 -2 -26 -8 -38z m376 25 c-4 -9 -9 -15 -11 -12 -3 3 -3 13 1 22 4 9
9 15 11 12 3 -3 3 -13 -1 -22z m31 -26 c-2 -13 -4 -5 -4 17 -1 22 1 32 4 23 2
-10 2 -28 0 -40z m-377 2 c0 -5 -4 -10 -10 -10 -5 0 -10 5 -10 10 0 6 5 10 10
10 6 0 10 -4 10 -10z m344 -124 c-9 -14 -21 -26 -26 -26 -5 0 0 12 11 26 12
15 22 36 22 48 2 21 2 21 6 -1 2 -12 -3 -33 -13 -47z m-82 35 c5 15 28 3 28
-14 0 -7 -4 -6 -10 3 -6 10 -10 11 -10 3 0 -19 -27 -16 -34 3 -5 14 -4 15 8 5
11 -9 15 -9 18 0z m-287 -31 c3 -5 1 -10 -4 -10 -6 0 -11 5 -11 10 0 6 2 10 4
10 3 0 8 -4 11 -10z m295 -4 c0 -3 -4 -8 -10 -11 -5 -3 -10 -1 -10 4 0 6 5 11
10 11 6 0 10 -2 10 -4z m-103 -38 c-3 -7 -5 -2 -5 12 0 14 2 19 5 13 2 -7 2
-19 0 -25z m-20 -10 c-3 -7 -5 -2 -5 12 0 14 2 19 5 13 2 -7 2 -19 0 -25z
m-24 -3 c-3 -9 -8 -14 -10 -11 -3 3 -2 9 2 15 9 16 15 13 8 -4z m-298 -6 c11
-16 1 -19 -13 -3 -7 8 -8 14 -3 14 5 0 13 -5 16 -11z m62 5 c-3 -3 -12 -4 -19
-1 -8 3 -5 6 6 6 11 1 17 -2 13 -5z m150 -26 c-3 -7 -5 -2 -5 12 0 14 2 19 5
13 2 -7 2 -19 0 -25z m223 1 c-11 -19 -50 -27 -50 -9 0 5 8 7 18 3 9 -3 14 -3
10 2 -10 10 11 37 23 29 5 -3 5 -14 -1 -25z m-240 2 c0 -6 -4 -13 -10 -16 -5
-3 -10 1 -10 9 0 9 5 16 10 16 6 0 10 -4 10 -9z m155 -9 c-3 -3 -11 0 -18 7
-9 10 -8 11 6 5 10 -3 15 -9 12 -12z m-139 -34 c5 4 5 3 1 -2 -13 -16 -37 -15
-37 1 0 12 3 13 13 4 8 -6 18 -7 23 -3z m-146 -23 c0 -8 8 -24 18 -35 19 -23
25 -60 10 -60 -6 0 -8 7 -4 15 3 8 1 15 -4 15 -6 0 -10 -5 -10 -11 0 -6 -7 -8
-16 -5 -8 3 -13 2 -10 -3 3 -5 -3 -11 -14 -14 -11 -3 -18 -1 -15 3 3 5 0 10
-6 12 -12 4 -23 64 -15 83 6 18 66 18 66 0z m264 6 c3 -5 -8 -14 -24 -20 -18
-6 -30 -6 -30 0 0 5 7 9 16 9 8 0 12 5 9 10 -3 6 1 10 9 10 8 0 17 -4 20 -9z
m-347 -43 c-3 -7 -5 -2 -5 12 0 14 2 19 5 13 2 -7 2 -19 0 -25z m180 10 c-3
-8 -6 -5 -6 6 -1 11 2 17 5 13 3 -3 4 -12 1 -19z m168 2 c-3 -5 -14 -10 -23
-10 -15 0 -15 2 -2 10 20 13 33 13 25 0z m-115 -28 c0 -9 -3 -12 -7 -9 -3 4
-12 2 -20 -4 -10 -9 -13 -8 -13 3 0 19 6 25 25 25 8 0 15 -7 15 -15z m8 -20
c13 11 14 11 10 -2 -5 -16 -48 -27 -48 -12 0 14 14 24 18 12 3 -7 9 -7 20 2z"/>
<path d="M1977 11619 c7 -7 15 -10 18 -7 3 3 -2 9 -12 12 -14 6 -15 5 -6 -5z"/>
<path d="M1363 11025 c0 -8 4 -12 9 -9 5 3 6 10 3 15 -9 13 -12 11 -12 -6z"/>
<path d="M2670 10190 c0 -5 5 -10 11 -10 5 0 7 5 4 10 -3 6 -8 10 -11 10 -2 0
-4 -4 -4 -10z"/>
<path d="M2622 10060 c0 -14 2 -19 5 -12 2 6 2 18 0 25 -3 6 -5 1 -5 -13z"/>
<path d="M2645 10010 c-3 -5 -1 -10 4 -10 6 0 11 5 11 10 0 6 -2 10 -4 10 -3
0 -8 -4 -11 -10z"/>
<path d="M2816 9987 c3 -10 9 -15 12 -12 3 3 0 11 -7 18 -10 9 -11 8 -5 -6z"/>
<path d="M2630 9980 c0 -5 5 -10 11 -10 5 0 7 5 4 10 -3 6 -8 10 -11 10 -2 0
-4 -4 -4 -10z"/>
<path d="M2800 9948 c0 -9 5 -20 10 -23 13 -8 13 5 0 25 -8 13 -10 13 -10 -2z"/>
<path d="M2906 9908 c10 -14 21 -24 23 -22 3 3 -6 15 -18 27 l-24 22 19 -27z"/>
<path d="M2893 9860 c0 -25 2 -35 4 -22 2 12 2 32 0 45 -2 12 -4 2 -4 -23z"/>
<path d="M2920 9770 c0 -5 5 -10 11 -10 5 0 7 5 4 10 -3 6 -8 10 -11 10 -2 0
-4 -4 -4 -10z"/>
<path d="M3070 9771 c0 -5 7 -11 15 -15 8 -3 15 -1 15 3 0 5 -7 11 -15 15 -8
3 -15 1 -15 -3z"/>
<path d="M2810 9729 c0 -5 5 -7 10 -4 6 3 10 8 10 11 0 2 -4 4 -10 4 -5 0 -10
-5 -10 -11z"/>
<path d="M2986 9657 c3 -10 9 -15 12 -12 3 3 0 11 -7 18 -10 9 -11 8 -5 -6z"/>
<path d="M3120 9641 c0 -5 5 -13 10 -16 6 -3 10 -2 10 4 0 5 -4 13 -10 16 -5
3 -10 2 -10 -4z"/>
<path d="M3491 9624 c0 -11 3 -14 6 -6 3 7 2 16 -1 19 -3 4 -6 -2 -5 -13z"/>
<path d="M3001 9594 c0 -11 3 -14 6 -6 3 7 2 16 -1 19 -3 4 -6 -2 -5 -13z"/>
<path d="M3501 9591 c-1 -7 -7 -11 -16 -7 -8 3 -15 2 -15 -3 0 -8 41 -24 46
-18 1 1 -2 11 -7 22 -4 11 -8 14 -8 6z"/>
<path d="M2911 9544 c0 -11 3 -14 6 -6 3 7 2 16 -1 19 -3 4 -6 -2 -5 -13z"/>
<path d="M3318 9493 c7 -3 16 -2 19 1 4 3 -2 6 -13 5 -11 0 -14 -3 -6 -6z"/>
<path d="M3255 9470 c3 -5 8 -10 11 -10 2 0 4 5 4 10 0 6 -5 10 -11 10 -5 0
-7 -4 -4 -10z"/>
<path d="M2670 9610 c0 -5 5 -10 11 -10 5 0 7 5 4 10 -3 6 -8 10 -11 10 -2 0
-4 -4 -4 -10z"/>
<path d="M1888 9621 c-15 -22 -17 -22 -27 -4 -11 17 -12 17 -9 -1 2 -11 8 -21
13 -23 17 -5 48 22 43 37 -3 10 -9 7 -20 -9z"/>
<path d="M2031 9611 c-25 -7 -42 -31 -21 -31 13 0 70 28 70 35 0 6 -19 5 -49
-4z"/>
<path d="M2181 9606 c-16 -19 -11 -29 8 -17 7 5 12 14 9 21 -3 9 -8 7 -17 -4z"/>
<path d="M2780 9145 c0 -5 5 -17 10 -25 5 -8 10 -10 10 -5 0 6 -5 17 -10 25
-5 8 -10 11 -10 5z"/>
<path d="M2802 9104 c-7 -8 -15 -31 -17 -52 -4 -35 -4 -35 4 -7 5 17 10 26 11
20 1 -5 6 3 11 19 10 35 8 39 -9 20z"/>
<path d="M2757 9053 c-4 -3 -7 -11 -7 -17 0 -6 5 -5 12 2 6 6 9 14 7 17 -3 3
-9 2 -12 -2z"/>
<path d="M2485 7970 c3 -5 14 -10 23 -10 15 0 15 2 2 10 -20 13 -33 13 -25 0z"/>
<path d="M3080 7521 c0 -5 7 -14 15 -21 16 -14 18 -10 9 14 -6 17 -24 22 -24
7z"/>
<path d="M3225 7459 c-11 -17 1 -21 15 -4 8 9 8 15 2 15 -6 0 -14 -5 -17 -11z"/>
<path d="M1740 8796 c0 -2 7 -7 16 -10 8 -3 12 -2 9 4 -6 10 -25 14 -25 6z"/>
<path d="M1960 8770 c-13 -8 -13 -10 2 -10 9 0 20 5 23 10 8 13 -5 13 -25 0z"/>
<path d="M1605 8720 c3 -5 11 -10 16 -10 6 0 7 5 4 10 -3 6 -11 10 -16 10 -6
0 -7 -4 -4 -10z"/>
<path d="M1647 8697 c-3 -7 3 -13 14 -14 12 -1 16 3 12 13 -6 18 -19 18 -26 1z"/>
<path d="M2112 8695 c-6 -11 -12 -16 -12 -11 0 6 -7 1 -15 -10 -20 -26 -19
-61 3 -73 12 -8 13 -10 3 -11 -8 0 -12 -3 -9 -6 4 -3 16 0 28 6 16 9 25 9 33
1 6 -6 17 -11 25 -11 13 0 72 52 72 64 0 12 -24 6 -42 -11 -17 -15 -19 -15
-38 2 -11 10 -24 32 -28 49 -8 29 -9 30 -20 11z m18 -49 c0 -9 -30 -14 -35 -6
-4 6 3 10 14 10 12 0 21 -2 21 -4z"/>
<path d="M1670 8670 c-8 -5 -13 -10 -10 -11 3 0 15 -2 27 -5 17 -3 21 0 17 11
-7 17 -13 18 -34 5z"/>
<path d="M2619 8706 c-14 -10 -15 -14 -3 -30 12 -17 13 -17 20 8 8 33 4 38
-17 22z"/>
<path d="M2530 8690 c0 -11 4 -20 9 -20 5 0 7 9 4 20 -3 11 -7 20 -9 20 -2 0
-4 -9 -4 -20z"/>
<path d="M2572 8645 c-26 -30 -30 -57 -4 -29 16 17 36 54 28 54 -1 0 -12 -11
-24 -25z"/>
<path d="M2597 8629 c-4 -16 -3 -18 9 -8 16 13 19 29 5 29 -5 0 -11 -9 -14
-21z"/>
<path d="M2520 8570 c-10 -6 -11 -14 -4 -31 9 -20 11 -21 17 -5 4 10 3 15 -3
11 -6 -3 -10 -2 -10 4 0 5 6 11 13 14 6 2 10 7 7 10 -3 3 -12 2 -20 -3z"/>
<path d="M2485 8560 c-3 -5 -1 -10 4 -10 6 0 11 5 11 10 0 6 -2 10 -4 10 -3 0
-8 -4 -11 -10z"/>
<path d="M2490 8501 c0 -25 6 -27 13 -6 4 8 2 17 -3 20 -6 4 -10 -3 -10 -14z"/>
<path d="M1770 6839 c0 -10 50 -109 55 -109 3 0 -3 17 -12 38 -18 39 -43 80
-43 71z"/>
<path d="M1970 6537 c0 -8 7 -17 15 -21 8 -3 15 -3 15 0 0 3 -7 12 -15 20 -13
13 -15 13 -15 1z"/>
<path d="M2036 6394 c-8 -21 -8 -24 5 -24 5 0 7 5 4 10 -3 6 -1 10 4 10 6 0
11 5 11 10 0 16 -17 12 -24 -6z"/>
<path d="M1932 8025 c3 -61 10 -111 16 -117 9 -9 23 -7 57 10 25 12 45 26 45
32 0 11 -19 48 -35 66 -5 6 -23 34 -40 62 -16 29 -34 52 -39 52 -5 0 -7 -47
-4 -105z"/>
<path d="M2501 8174 c0 -11 3 -14 6 -6 3 7 2 16 -1 19 -3 4 -6 -2 -5 -13z"/>
<path d="M3150 7869 c-22 -22 -40 -46 -40 -54 0 -7 -4 -15 -9 -17 -4 -1 -11
-14 -15 -28 -3 -14 -3 -19 0 -12 8 17 27 15 20 -3 -7 -18 3 -19 27 -1 23 18
22 25 -3 19 -24 -6 -29 24 -5 33 8 4 12 11 9 16 -8 13 59 75 74 70 17 -5 15 5
-3 11 -8 4 -30 -10 -55 -34z"/>
<path d="M3183 7854 c-15 -16 -16 -24 -4 -24 8 0 24 30 19 35 -2 2 -9 -3 -15
-11z"/>
<path d="M1755 6510 c3 -5 8 -10 11 -10 2 0 4 5 4 10 0 6 -5 10 -11 10 -5 0
-7 -4 -4 -10z"/>
<path d="M1659 6483 c-13 -16 -12 -17 4 -4 9 7 17 15 17 17 0 8 -8 3 -21 -13z"/>
<path d="M1782 6440 c0 -14 2 -19 5 -12 2 6 2 18 0 25 -3 6 -5 1 -5 -13z"/>
<path d="M1407 6293 c-9 -2 -15 -8 -12 -12 2 -5 -14 -16 -37 -24 -23 -9 -39
-20 -35 -23 4 -4 13 -2 20 4 8 7 16 10 19 7 2 -2 20 9 39 25 19 16 32 29 29
28 -3 0 -13 -2 -23 -5z"/>
<path d="M1280 6210 c-9 -6 -10 -10 -3 -10 6 0 15 5 18 10 8 12 4 12 -15 0z"/>
<path d="M1240 6191 c0 -5 7 -11 15 -15 8 -3 15 -1 15 3 0 5 -7 11 -15 15 -8
3 -15 1 -15 -3z"/>
<path d="M1360 6045 c-7 -9 -8 -15 -2 -15 5 0 12 7 16 15 3 8 4 15 2 15 -2 0
-9 -7 -16 -15z"/>
<path d="M1881 6216 c-1 -19 -5 -27 -14 -23 -11 4 -46 -50 -36 -56 2 -1 14 -8
27 -15 23 -13 28 -7 13 17 -5 7 -14 10 -21 6 -9 -6 -9 -3 0 15 11 21 12 21 27
3 14 -17 14 -17 8 1 -3 11 -1 22 5 26 7 4 7 14 1 31 -10 24 -10 24 -10 -5z"/>
<path d="M1835 6220 c-3 -5 -1 -10 4 -10 6 0 11 5 11 10 0 6 -2 10 -4 10 -3 0
-8 -4 -11 -10z"/>
<path d="M1830 6116 c0 -2 7 -7 16 -10 8 -3 12 -2 9 4 -6 10 -25 14 -25 6z"/>
<path d="M1706 6104 c-3 -8 -11 -12 -17 -8 -8 5 -9 3 -5 -5 6 -9 13 -8 27 5
21 19 23 24 10 24 -5 0 -12 -7 -15 -16z"/>
<path d="M1655 6072 c-19 -13 -14 -29 8 -26 12 1 26 3 31 3 9 1 -13 31 -23 31
-3 0 -10 -4 -16 -8z m25 -12 c0 -5 -2 -10 -4 -10 -3 0 -8 5 -11 10 -3 6 -1 10
4 10 6 0 11 -4 11 -10z"/>
<path d="M1500 5940 c0 -5 7 -7 15 -4 8 4 15 8 15 10 0 2 -7 4 -15 4 -8 0 -15
-4 -15 -10z"/>
<path d="M2541 5736 c-7 -8 -8 -17 -3 -20 6 -3 12 3 15 14 6 24 4 25 -12 6z"/>
<path d="M2565 5730 c-4 -6 -1 -10 5 -10 6 0 9 -4 6 -8 -3 -5 8 -9 23 -9 22 0
26 3 18 12 -18 17 -46 25 -52 15z"/>
<path d="M2586 5685 c-3 -8 4 -10 21 -7 18 3 30 -1 39 -13 8 -10 17 -15 21
-11 4 4 0 12 -10 17 -9 6 -16 13 -13 17 2 4 -9 7 -24 8 -16 1 -31 -4 -34 -11z"/>
<path d="M3860 5660 c-9 -6 -10 -10 -3 -10 6 0 15 5 18 10 8 12 4 12 -15 0z"/>
<path d="M3900 5626 c0 -2 7 -7 16 -10 8 -3 12 -2 9 4 -6 10 -25 14 -25 6z"/>
<path d="M2780 5560 c6 -11 13 -20 16 -20 2 0 0 9 -6 20 -6 11 -13 20 -16 20
-2 0 0 -9 6 -20z"/>
<path d="M2670 5566 c0 -2 7 -9 15 -16 13 -11 14 -10 9 4 -5 14 -24 23 -24 12z"/>
<path d="M2860 5461 c0 -6 4 -13 10 -16 6 -3 7 1 4 9 -7 18 -14 21 -14 7z"/>
<path d="M2830 5431 c0 -6 4 -13 10 -16 6 -3 7 1 4 9 -7 18 -14 21 -14 7z"/>
<path d="M2806 5343 c-6 -14 -5 -15 5 -6 7 7 10 15 7 18 -3 3 -9 -2 -12 -12z"/>
<path d="M2812 5315 c-1 -19 26 -80 28 -65 1 8 8 -3 15 -25 l13 -40 1 32 c1
17 -3 35 -9 38 -5 3 -11 16 -11 28 -1 20 -2 20 -6 2 -5 -17 -7 -15 -18 10 -8
17 -13 26 -13 20z"/>
<path d="M2756 5285 c4 -11 12 -42 19 -70 6 -27 15 -58 19 -67 4 -9 4 -23 0
-29 -5 -9 -10 -5 -16 11 -5 12 -10 21 -12 19 -7 -7 6 -59 13 -55 3 2 6 -10 7
-27 1 -18 5 -62 9 -99 7 -58 5 -75 -16 -125 -25 -63 -69 -151 -69 -138 0 4 -7
2 -15 -5 -10 -8 -14 -29 -14 -67 1 -33 5 -50 10 -42 4 8 11 10 15 7 4 -4 19 1
34 12 16 11 33 20 39 20 6 0 11 7 11 16 0 8 4 12 10 9 5 -3 24 8 41 25 18 16
36 30 40 30 4 0 6 11 3 25 -5 27 6 31 37 14 18 -9 19 -8 10 9 -12 23 9 38 28
19 13 -13 13 -7 2 51 -6 31 -5 42 4 42 13 0 54 -98 56 -133 1 -18 2 -18 6 -4
4 14 -24 129 -45 187 -3 8 -6 20 -7 25 0 6 -7 24 -15 40 -7 17 -12 36 -11 44
1 7 -2 10 -7 7 -6 -3 -10 4 -10 17 0 35 -26 98 -38 93 -7 -3 -10 6 -7 22 2 15
1 22 -3 15 -3 -7 -12 -9 -21 -6 -13 5 -13 3 -4 -15 6 -11 11 -30 11 -41 0 -12
6 -20 13 -18 13 2 13 -16 1 -68 -6 -28 -5 -29 8 -11 13 17 15 17 21 2 4 -10
-1 -24 -13 -36 -13 -13 -20 -15 -21 -7 -1 6 -5 -1 -9 -18 -7 -28 -8 -27 -9 13
-1 29 -6 45 -17 49 -11 4 -14 13 -9 30 7 28 -22 126 -35 118 -4 -3 -6 3 -4 12
2 10 -7 41 -21 68 -14 28 -22 41 -19 30z m61 -175 c-3 -11 -1 -23 4 -26 5 -3
9 -11 9 -17 0 -7 -7 -4 -14 6 -12 16 -11 57 1 57 3 0 3 -9 0 -20z m100 -42
c-3 -8 -6 -5 -6 6 -1 11 2 17 5 13 3 -3 4 -12 1 -19z m-98 -78 c-1 -53 -6 -44
-12 24 -3 30 -1 43 4 35 5 -8 8 -34 8 -59z m28 8 c-3 -8 -6 -5 -6 6 -1 11 2
17 5 13 3 -3 4 -12 1 -19z m63 -168 c8 -20 9 -35 3 -41 -13 -13 -73 1 -80 18
-8 20 4 28 21 14 12 -10 17 -8 26 9 6 11 8 26 4 32 -4 6 -3 8 3 5 6 -4 16 -20
23 -37z m-147 -86 c-14 -25 -27 -43 -30 -40 -5 4 44 86 51 86 3 0 -7 -20 -21
-46z m28 -11 c-12 -20 -14 -14 -5 12 4 9 9 14 11 11 3 -2 0 -13 -6 -23z m-21
-84 c0 -5 -4 -8 -9 -4 -6 3 -14 -3 -20 -12 -9 -16 -10 -16 -11 5 0 15 6 22 20
22 11 0 20 -5 20 -11z"/>
<path d="M2910 5265 c0 -5 5 -17 10 -25 5 -8 10 -10 10 -5 0 6 -5 17 -10 25
-5 8 -10 11 -10 5z"/>
<path d="M2841 5214 c0 -11 3 -14 6 -6 3 7 2 16 -1 19 -3 4 -6 -2 -5 -13z"/>
<path d="M2871 5074 c0 -11 3 -14 6 -6 3 7 2 16 -1 19 -3 4 -6 -2 -5 -13z"/>
<path d="M1565 4869 c-10 -30 -2 -32 12 -3 6 13 7 24 3 24 -5 0 -12 -9 -15
-21z"/>
<path d="M3175 4813 c4 -32 16 -76 26 -98 l19 -40 -5 50 c-10 80 -26 145 -37
145 -7 0 -8 -21 -3 -57z"/>
<path d="M1509 4806 l-27 -31 24 -1 c13 -1 24 2 24 8 0 5 -4 6 -10 3 -17 -10
-11 7 6 20 9 6 15 16 13 21 -2 6 -16 -4 -30 -20z"/>
<path d="M2060 4832 c0 -5 9 -21 20 -35 11 -14 20 -30 20 -36 0 -6 5 -10 12
-8 6 1 14 -6 16 -17 3 -13 0 -16 -10 -10 -7 5 -5 -4 6 -21 38 -59 51 -74 64
-75 6 0 12 -10 12 -22 0 -25 44 -87 54 -77 3 3 -5 19 -19 35 -27 31 -30 40
-16 48 5 3 11 -3 14 -14 3 -11 11 -20 19 -19 10 0 10 2 1 6 -7 2 -13 13 -13
24 0 10 -4 19 -8 19 -5 0 -21 18 -38 40 -16 22 -35 38 -42 35 -9 -3 -12 1 -8
13 3 11 -11 36 -39 70 -25 30 -45 50 -45 44z m125 -180 c-6 -7 -34 29 -34 43
0 6 9 -1 20 -14 11 -13 17 -26 14 -29z"/>
<path d="M1450 4745 c0 -8 5 -15 10 -15 6 0 10 7 10 15 0 8 -4 15 -10 15 -5 0
-10 -7 -10 -15z"/>
<path d="M1420 4740 c-9 -6 -10 -10 -3 -10 6 0 15 5 18 10 8 12 4 12 -15 0z"/>
<path d="M3143 4695 c-3 -9 -3 -18 -1 -21 3 -3 8 4 11 16 6 23 -1 27 -10 5z"/>
<path d="M1677 4643 c-4 -3 -7 -23 -7 -44 0 -21 -4 -49 -10 -64 -5 -14 -14
-56 -20 -93 -6 -37 -13 -80 -16 -96 -5 -21 -3 -26 6 -21 9 6 11 -7 7 -56 -6
-58 -5 -60 5 -25 6 21 18 46 28 56 11 11 18 34 18 59 0 22 4 46 7 51 9 15 16
179 9 213 -6 27 -14 33 -27 20z"/>
<path d="M2508 4633 c6 -2 18 -2 25 0 6 3 1 5 -13 5 -14 0 -19 -2 -12 -5z"/>
<path d="M3097 4617 c-3 -8 1 -39 8 -68 l13 -54 -3 64 c-4 66 -9 82 -18 58z"/>
<path d="M2655 4599 c-10 -30 0 -33 13 -4 6 14 7 25 2 25 -5 0 -12 -9 -15 -21z"/>
<path d="M1480 4539 c0 -5 5 -7 10 -4 6 3 10 8 10 11 0 2 -4 4 -10 4 -5 0 -10
-5 -10 -11z"/>
<path d="M2274 4529 c-8 -10 -5 -22 11 -46 12 -18 25 -29 29 -26 3 3 1 12 -5
19 -6 7 -14 25 -18 39 -5 22 -9 24 -17 14z"/>
<path d="M1611 4293 c0 -6 -4 -20 -7 -30 -5 -14 -4 -15 5 -7 7 7 11 20 8 30
-3 11 -5 14 -6 7z"/>
<path d="M1661 4234 c0 -11 3 -14 6 -6 3 7 2 16 -1 19 -3 4 -6 -2 -5 -13z"/>
<path d="M2801 3754 c0 -11 3 -14 6 -6 3 7 2 16 -1 19 -3 4 -6 -2 -5 -13z"/>
<path d="M2693 2760 c1 -11 5 -20 9 -20 11 0 10 28 -1 35 -6 3 -9 -4 -8 -15z"/>
<path d="M2705 2720 c-3 -6 1 -7 9 -4 18 7 21 14 7 14 -6 0 -13 -4 -16 -10z"/>
<path d="M2675 2640 c-22 -9 -21 -10 12 -14 14 -2 19 2 16 11 -3 7 -6 13 -7
12 0 0 -10 -4 -21 -9z"/>
<path d="M2736 2464 c-9 -24 -6 -41 4 -19 7 15 9 9 9 -25 1 -25 10 -74 21
-109 11 -35 18 -66 16 -68 -2 -3 -13 0 -24 6 -33 18 -37 13 -12 -14 20 -21 21
-25 6 -25 -9 0 -15 4 -11 9 3 5 1 12 -5 16 -5 3 -10 1 -10 -4 0 -6 -5 -11 -11
-11 -8 0 -8 4 -1 13 17 20 -15 77 -44 77 -28 0 -36 -11 -23 -30 8 -13 10 -13
18 0 6 8 13 11 18 7 4 -5 1 -12 -6 -17 -11 -6 -10 -14 8 -39 13 -17 27 -29 32
-26 5 4 9 1 9 -4 0 -6 18 -11 40 -11 39 0 41 -2 65 -55 13 -30 27 -55 31 -55
3 0 3 8 -1 18 -4 11 -3 14 4 7 6 -6 8 -21 4 -34 -5 -19 -10 -22 -32 -16 -14 3
-31 6 -38 7 -7 1 -10 5 -7 9 2 4 -17 17 -43 29 -26 11 -59 31 -72 43 -17 15
-25 18 -28 9 -3 -6 -8 -10 -13 -7 -9 6 -1 -35 11 -50 4 -5 10 -32 14 -60 4
-27 12 -55 17 -62 5 -7 7 -17 3 -23 -10 -16 6 -35 17 -19 6 10 7 6 3 -11 -7
-30 11 -43 91 -70 71 -23 136 -20 175 9 l31 23 26 -24 c15 -12 31 -29 35 -36
6 -9 13 -9 27 -2 13 7 21 7 25 0 4 -6 3 -10 -2 -9 -31 5 -47 -21 -22 -36 13
-9 59 3 59 15 0 5 -19 37 -43 72 -23 35 -76 119 -116 188 -41 69 -81 135 -88
148 -8 12 -18 20 -23 17 -5 -3 -12 0 -16 6 -4 8 -3 9 4 5 17 -10 15 2 -10 53
-27 59 -27 59 -42 39 -12 -16 -13 -15 -12 11 1 16 5 27 10 24 5 -3 6 0 4 8 -3
8 -11 13 -17 12 -6 -2 -10 0 -10 5 5 28 -3 52 -17 52 -9 0 -14 6 -11 13 2 6
-1 18 -8 24 -10 10 -14 9 -19 -3z m42 -105 c-3 -8 -7 -3 -11 10 -4 17 -3 21 5
13 5 -5 8 -16 6 -23z m9 -41 c-3 -8 -6 -5 -6 6 -1 11 2 17 5 13 3 -3 4 -12 1
-19z m50 -20 c0 -7 4 -22 8 -33 7 -20 6 -20 -9 -1 -17 21 -21 46 -8 46 5 0 9
-6 9 -12z m11 -83 c4 -4 1 -4 -7 0 -11 6 -13 4 -8 -8 19 -46 19 -53 3 -32 -9
11 -23 28 -30 37 -13 15 -12 16 10 14 13 -2 27 -6 32 -11z m22 -25 c0 -5 -4
-10 -10 -10 -5 0 -10 5 -10 10 0 6 5 10 10 10 6 0 10 -4 10 -10z m62 -75 c3
-13 2 -22 -2 -20 -4 3 -10 16 -12 30 -3 13 -2 22 2 20 4 -3 10 -16 12 -30z
m-35 -7 c-3 -7 -5 -2 -5 12 0 14 2 19 5 13 2 -7 2 -19 0 -25z m-212 12 c3 -5
-1 -10 -9 -10 -9 0 -16 5 -16 10 0 6 4 10 9 10 6 0 13 -4 16 -10z m51 -37 c-7
-7 -26 7 -26 19 0 6 6 6 15 -2 9 -7 13 -15 11 -17z m-46 -3 c0 -5 -4 -10 -10
-10 -5 0 -10 5 -10 10 0 6 5 10 10 10 6 0 10 -4 10 -10z m75 -10 c3 -5 1 -10
-4 -10 -6 0 -11 5 -11 10 0 6 2 10 4 10 3 0 8 -4 11 -10z m65 -40 c8 -5 12
-11 9 -14 -3 -3 -14 1 -25 9 -21 16 -8 20 16 5z m0 -40 c8 -5 11 -10 5 -10 -5
0 -17 5 -25 10 -8 5 -10 10 -5 10 6 0 17 -5 25 -10z m145 -106 c-7 -8 -20 -14
-27 -13 -10 0 -10 2 1 6 10 4 10 7 1 13 -7 5 -2 8 13 8 22 0 24 -3 12 -14z
m-195 2 c0 -3 -4 -8 -10 -11 -5 -3 -10 -1 -10 4 0 6 5 11 10 11 6 0 10 -2 10
-4z m143 -13 c-7 -2 -19 -2 -25 0 -7 3 -2 5 12 5 14 0 19 -2 13 -5z m-66 -19
c-3 -3 -12 -4 -19 -1 -8 3 -5 6 6 6 11 1 17 -2 13 -5z m48 -4 c3 -5 -1 -10 -9
-10 -9 0 -16 5 -16 10 0 6 4 10 9 10 6 0 13 -4 16 -10z"/>
<path d="M2461 2293 c0 -6 -4 -20 -7 -30 -5 -14 -4 -15 5 -7 7 7 11 20 8 30
-3 11 -5 14 -6 7z"/>
<path d="M2450 2203 l0 -38 15 29 c19 36 19 46 0 46 -11 0 -15 -11 -15 -37z"/>
<path d="M2376 2130 c-8 -44 -8 -60 3 -60 11 0 19 66 10 81 -3 6 -9 -4 -13
-21z"/>
<path d="M2225 2009 c-27 -120 -35 -162 -31 -166 3 -3 10 16 17 42 8 32 14 42
20 33 10 -15 12 -1 10 66 -1 46 -8 58 -16 25z"/>
<path d="M2400 1967 c0 -13 9 -52 21 -87 11 -35 22 -83 24 -107 1 -24 5 -46 8
-49 12 -13 88 -16 101 -5 13 11 10 20 -16 64 -17 29 -37 59 -45 68 -7 9 -27
43 -43 77 -31 64 -50 79 -50 39z"/>
<path d="M2094 1370 c6 -73 10 -80 42 -80 28 0 28 -4 9 51 -36 106 -60 119
-51 29z m23 -22 c-3 -8 -6 -5 -6 6 -1 11 2 17 5 13 3 -3 4 -12 1 -19z"/>
<path d="M2201 1272 c-1 -7 -5 -11 -10 -8 -11 7 -61 -10 -61 -21 0 -5 10 -19
23 -33 13 -14 24 -29 25 -33 1 -4 8 -14 16 -22 18 -19 33 0 16 20 -6 8 -10 22
-7 32 4 14 5 13 6 -4 0 -13 6 -23 11 -23 6 0 10 10 10 23 -1 25 -28 90 -29 69z"/>
<path d="M3216 1231 c-12 -13 -14 -21 -6 -26 6 -3 10 -3 9 2 -3 19 2 27 10 14
5 -7 11 -9 14 -4 3 5 2 14 -2 21 -6 9 -12 7 -25 -7z"/>
<path d="M3515 5141 c-3 -5 -2 -12 3 -15 5 -3 9 1 9 9 0 17 -3 19 -12 6z"/>
<path d="M1835 3770 c-3 -6 1 -7 9 -4 18 7 21 14 7 14 -6 0 -13 -4 -16 -10z"/>
<path d="M1384 3715 c-3 -19 -4 -40 -1 -47 3 -7 6 -2 6 12 1 14 6 32 12 40 8
12 9 9 4 -9 -6 -21 -5 -22 8 -10 16 16 13 35 -8 43 -10 3 -16 -6 -21 -29z"/>
<path d="M1366 3633 c-6 -14 -5 -15 5 -6 7 7 10 15 7 18 -3 3 -9 -2 -12 -12z"/>
<path d="M1583 3635 c-3 -9 -3 -18 -1 -21 3 -3 8 4 11 16 6 23 -1 27 -10 5z"/>
<path d="M1386 3595 c-9 -26 -7 -32 5 -12 6 10 9 21 6 23 -2 3 -7 -2 -11 -11z"/>
<path d="M1353 3570 c-2 -23 13 -35 23 -19 5 8 3 9 -6 4 -10 -6 -12 -4 -7 8 3
9 3 18 -1 21 -4 3 -8 -4 -9 -14z"/>
<path d="M1700 3540 c0 -5 5 -10 10 -10 6 0 10 5 10 10 0 6 -4 10 -10 10 -5 0
-10 -4 -10 -10z"/>
<path d="M1763 3355 c0 -8 4 -12 9 -9 4 3 8 9 8 15 0 5 -4 9 -8 9 -5 0 -9 -7
-9 -15z"/>
<path d="M1545 3250 c-3 -5 -1 -10 4 -10 6 0 11 5 11 10 0 6 -2 10 -4 10 -3 0
-8 -4 -11 -10z"/>
<path d="M1783 3212 c-10 -6 -43 -76 -43 -90 0 -12 21 16 40 53 21 41 21 48 3
37z"/>
<path d="M1677 3173 c-4 -3 -7 -11 -7 -17 0 -6 5 -5 12 2 6 6 9 14 7 17 -3 3
-9 2 -12 -2z"/>
<path d="M1888 3129 c-13 -40 -14 -48 -2 -39 13 11 31 77 23 85 -2 2 -12 -19
-21 -46z"/>
<path d="M2140 653 c0 -23 -5 -33 -15 -33 -11 0 -15 -11 -15 -40 0 -33 3 -40
20 -40 16 0 20 7 20 35 0 22 6 38 15 41 19 8 19 14 -5 44 l-20 25 0 -32z"/>
<path d="M2091 483 c0 -35 2 -63 7 -63 4 0 6 21 4 48 -5 75 -10 82 -11 15z"/>
<path d="M2118 503 c-4 -18 -4 -43 1 -54 11 -32 18 -4 11 46 l-5 40 -7 -32z"/>
</g>
</svg>
